<svg width="239" height="85" viewBox="0 0 239 85" fill="none" xmlns="http://www.w3.org/2000/svg">
<g opacity="0.5">
<path d="M126.031 25.0658C126.031 27.5915 124.009 29.626 121.5 29.626C118.991 29.626 116.969 27.5915 116.969 25.0658C116.969 22.5401 118.921 20.5055 121.5 20.5055C124.079 20.5757 126.031 22.6102 126.031 25.0658ZM107.35 34.2565C107.35 34.6774 107.35 35.379 107.35 35.379C107.35 35.379 105.189 32.5727 100.589 32.5727C92.9914 32.5727 87.0667 38.3958 87.0667 46.4639C87.0667 54.4619 92.9217 60.3552 100.589 60.3552C105.259 60.3552 107.35 57.4787 107.35 57.4787V58.6714C107.35 59.2327 107.768 59.6536 108.326 59.6536H113.972V33.2742C113.972 33.2742 108.814 33.2742 108.326 33.2742C107.768 33.2742 107.35 33.7654 107.35 34.2565ZM107.35 51.1645C106.305 52.708 104.214 54.041 101.704 54.041C97.2433 54.041 93.8279 51.2347 93.8279 46.4639C93.8279 41.6932 97.2433 38.8869 101.704 38.8869C104.144 38.8869 106.374 40.29 107.35 41.7634V51.1645ZM118.154 33.2742H124.846V59.6536H118.154V33.2742ZM218.108 32.5727C213.508 32.5727 211.347 35.379 211.347 35.379V20.5757H204.656V59.6536C204.656 59.6536 209.814 59.6536 210.302 59.6536C210.859 59.6536 211.278 59.1625 211.278 58.6714V57.4787C211.278 57.4787 213.438 60.3552 218.039 60.3552C225.636 60.3552 231.561 54.4619 231.561 46.4639C231.561 38.4659 225.636 32.5727 218.108 32.5727ZM216.993 53.9708C214.414 53.9708 212.393 52.6378 211.347 51.0943V41.6932C212.393 40.29 214.623 38.8167 216.993 38.8167C221.454 38.8167 224.87 41.623 224.87 46.3938C224.87 51.1645 221.454 53.9708 216.993 53.9708ZM201.171 44.0084V59.7238H194.479V44.7801C194.479 40.4304 193.085 38.6764 189.321 38.6764C187.3 38.6764 185.209 39.7288 183.884 41.2722V59.6536H177.193V33.2742H182.49C183.048 33.2742 183.466 33.7654 183.466 34.2565V35.379C185.418 33.3444 187.997 32.5727 190.576 32.5727C193.503 32.5727 195.943 33.4146 197.895 35.0984C200.264 37.0628 201.171 39.5885 201.171 44.0084ZM160.952 32.5727C156.352 32.5727 154.191 35.379 154.191 35.379V20.5757H147.499V59.6536C147.499 59.6536 152.657 59.6536 153.145 59.6536C153.703 59.6536 154.121 59.1625 154.121 58.6714V57.4787C154.121 57.4787 156.282 60.3552 160.882 60.3552C168.48 60.3552 174.405 54.4619 174.405 46.4639C174.474 38.4659 168.55 32.5727 160.952 32.5727ZM159.837 53.9708C157.258 53.9708 155.236 52.6378 154.191 51.0943V41.6932C155.236 40.29 157.467 38.8167 159.837 38.8167C164.298 38.8167 167.713 41.623 167.713 46.3938C167.713 51.1645 164.298 53.9708 159.837 53.9708ZM141.714 32.5727C143.735 32.5727 144.781 32.9235 144.781 32.9235V39.1675C144.781 39.1675 139.205 37.2732 135.719 41.2722V59.7238H129.028V33.2742C129.028 33.2742 134.186 33.2742 134.674 33.2742C135.231 33.2742 135.65 33.7654 135.65 34.2565V35.379C136.904 33.9057 139.623 32.5727 141.714 32.5727ZM72.2199 57.2682C71.8714 56.4263 71.5229 55.5143 71.1744 54.7426C70.6167 53.4797 70.0591 52.287 69.5712 51.1645L69.5015 51.0943C64.692 40.5707 59.534 29.9067 54.0971 19.383L53.888 18.962C53.3304 17.9097 52.7728 16.7871 52.2151 15.6646C51.5181 14.4018 50.8211 13.0688 49.7058 11.8059C47.4753 8.99962 44.269 7.45615 40.8535 7.45615C37.3684 7.45615 34.2317 8.99962 31.9315 11.6656C30.886 12.9285 30.1193 14.2615 29.4222 15.5243C28.8646 16.6468 28.307 17.7694 27.7494 18.8217L27.5402 19.2427C22.1731 29.7664 16.9454 40.4304 12.1359 50.954L12.0662 51.0943C11.5782 52.2169 11.0206 53.4096 10.463 54.6724C10.1145 55.4441 9.76596 56.286 9.41744 57.1981C8.5113 59.7939 8.23249 62.2494 8.58101 64.7751C9.34774 70.037 12.8329 74.4569 17.6424 76.4213C19.4547 77.1931 21.3367 77.5439 23.2884 77.5439C23.846 77.5439 24.543 77.4737 25.1006 77.4035C27.4008 77.1229 29.7707 76.3512 32.0709 75.0182C34.9288 73.4046 37.6472 71.0893 40.7141 67.7218C43.7811 71.0893 46.5692 73.4046 49.3573 75.0182C51.6575 76.3512 54.0274 77.1229 56.3276 77.4035C56.8852 77.4737 57.5823 77.5439 58.1399 77.5439C60.0916 77.5439 62.0433 77.1931 63.7858 76.4213C68.6651 74.4569 72.0805 69.9668 72.8472 64.7751C73.4049 62.3196 73.1261 59.8641 72.2199 57.2682ZM40.7838 60.9164C37.0199 56.1457 34.5803 51.6556 33.7438 47.8671C33.3953 46.2535 33.3256 44.8503 33.5347 43.5875C33.6741 42.4649 34.0923 41.4827 34.65 40.6408C35.9743 38.7466 38.2048 37.5539 40.7838 37.5539C43.3628 37.5539 45.663 38.6764 46.9177 40.6408C47.4753 41.4827 47.8935 42.4649 48.0329 43.5875C48.2421 44.8503 48.1724 46.3236 47.8238 47.8671C46.9874 51.5855 44.5478 56.0756 40.7838 60.9164ZM68.5954 64.2139C68.1074 67.8621 65.6678 71.0192 62.2524 72.4223C60.5795 73.1239 58.7672 73.3344 56.9549 73.1239C55.2124 72.9134 53.4698 72.3522 51.6575 71.2998C49.1482 69.8967 46.6389 67.7218 43.7114 64.4945C48.3118 58.8117 51.0999 53.62 52.1454 48.9896C52.6334 46.8147 52.7031 44.8503 52.4939 43.0262C52.2151 41.2722 51.5878 39.6586 50.612 38.2555C48.4512 35.0984 44.8266 33.2742 40.7838 33.2742C36.7411 33.2742 33.1165 35.1685 30.9557 38.2555C29.9799 39.6586 29.3525 41.2722 29.0737 43.0262C28.7949 44.8503 28.8646 46.8849 29.4222 48.9896C30.4678 53.62 33.3256 58.8819 37.8563 64.5647C34.9985 67.7919 32.4195 69.9668 29.9101 71.37C28.0979 72.4223 26.3553 72.9836 24.6127 73.1941C22.7307 73.4045 20.9185 73.1239 19.3153 72.4925C15.8998 71.0893 13.4602 67.9322 12.9723 64.284C12.7632 62.5301 12.9026 60.7761 13.5996 58.8117C13.8087 58.1101 14.1573 57.4086 14.5058 56.5667C14.9937 55.4441 15.5513 54.2515 16.1089 53.0588L16.1786 52.9185C20.9882 42.4649 26.1462 31.8009 31.5133 21.4176L31.7224 20.9966C32.2801 19.9442 32.8377 18.8217 33.3953 17.7694C33.9529 16.6468 34.5803 15.5945 35.347 14.6824C36.8108 12.9986 38.7624 12.0866 40.9232 12.0866C43.084 12.0866 45.0357 12.9986 46.4995 14.6824C47.2662 15.5945 47.8935 16.6468 48.4512 17.7694C49.0088 18.8217 49.5664 19.9442 50.124 20.9966L50.3331 21.4176C55.6306 31.8711 60.7886 42.5351 65.5981 52.9886V53.0588C66.1557 54.1813 66.6437 55.4441 67.2013 56.5667C67.5498 57.4086 67.8983 58.1101 68.1074 58.8117C68.6651 60.6358 68.8742 62.3898 68.5954 64.2139Z" fill="#2D8A48"/>
</g>
</svg>
