<svg width="1440" height="787" viewBox="0 0 1440 787" fill="none" xmlns="http://www.w3.org/2000/svg">
<g opacity="0.7">
<mask id="path-1-outside-1_156_12472" maskUnits="userSpaceOnUse" x="-30" y="0.469482" width="1499" height="786" fill="black">
<rect fill="white" x="-30" y="0.469482" width="1499" height="786"/>
<path d="M14.3554 29.4695H1440V529.682C1440 529.682 1283.58 587.194 1041.51 584.353C799.45 581.513 653.029 747.806 378.687 756.534C78.7075 766.078 0 694.522 0 694.522L14.3554 29.4695Z"/>
</mask>
<path d="M14.3554 29.4695H1440V529.682C1440 529.682 1283.58 587.194 1041.51 584.353C799.45 581.513 653.029 747.806 378.687 756.534C78.7075 766.078 0 694.522 0 694.522L14.3554 29.4695Z" fill="#ADEBC0"/>
<path d="M14.3554 29.4695V0.469482H-14.0253L-14.6378 28.8437L14.3554 29.4695ZM1440 29.4695H1469V0.469482H1440V29.4695ZM1440 529.682L1450.01 556.9L1469 549.917V529.682H1440ZM0 694.522L-28.9932 693.896L-29.2782 707.097L-19.5081 715.979L0 694.522ZM378.687 756.534L379.609 785.52L378.687 756.534ZM14.3554 58.4695H1440V0.469482H14.3554V58.4695ZM1411 29.4695V529.682H1469V29.4695H1411ZM28.9932 695.148L43.3487 30.0953L-14.6378 28.8437L-28.9932 693.896L28.9932 695.148ZM377.765 727.549C230.076 732.248 138.568 716.918 84.9803 701.27C58.2138 693.453 40.9391 685.567 30.8358 680.075C25.7818 677.327 22.5069 675.17 20.7218 673.907C19.8285 673.275 19.3051 672.864 19.1157 672.712C19.0208 672.636 19.0092 672.624 19.0762 672.681C19.1097 672.71 19.1628 672.756 19.235 672.819C19.2711 672.851 19.3119 672.887 19.3575 672.928C19.3802 672.948 19.4042 672.97 19.4293 672.993C19.4418 673.004 19.4616 673.022 19.4678 673.027C19.4878 673.046 19.5081 673.064 0 694.522C-19.5081 715.979 -19.4872 715.998 -19.466 716.018C-19.4586 716.024 -19.437 716.044 -19.4221 716.057C-19.3921 716.084 -19.361 716.112 -19.3285 716.141C-19.2636 716.2 -19.1937 716.262 -19.1186 716.328C-18.9684 716.46 -18.7979 716.609 -18.6063 716.772C-18.2231 717.1 -17.7562 717.489 -17.2013 717.934C-16.0914 718.826 -14.6309 719.943 -12.7861 721.248C-9.09511 723.861 -3.8774 727.22 3.13462 731.032C17.1634 738.658 38.3143 748.065 68.7221 756.944C129.482 774.688 227.318 790.365 379.609 785.52L377.765 727.549ZM1440 529.682C1429.99 502.463 1430 502.461 1430 502.459C1430.01 502.458 1430.01 502.456 1430.01 502.456C1430.02 502.454 1430.02 502.453 1430.02 502.453C1430.02 502.453 1430.01 502.457 1429.99 502.464C1429.95 502.478 1429.87 502.506 1429.76 502.547C1429.53 502.629 1429.15 502.763 1428.63 502.947C1427.58 503.314 1425.93 503.877 1423.72 504.607C1419.29 506.068 1412.57 508.199 1403.7 510.77C1385.96 515.914 1359.62 522.817 1325.78 529.658C1258.09 543.342 1160.53 556.748 1041.85 555.355L1041.17 613.352C1164.56 614.799 1266.24 600.869 1337.28 586.508C1372.8 579.325 1400.7 572.028 1419.85 566.477C1429.43 563.701 1436.82 561.36 1441.89 559.687C1444.43 558.851 1446.38 558.181 1447.74 557.707C1448.42 557.47 1448.95 557.281 1449.33 557.146C1449.52 557.078 1449.67 557.023 1449.78 556.982C1449.84 556.962 1449.89 556.945 1449.92 556.931C1449.94 556.924 1449.96 556.918 1449.97 556.913C1449.98 556.91 1449.99 556.907 1449.99 556.906C1450 556.903 1450.01 556.9 1440 529.682ZM1041.85 555.355C913.999 553.855 811.616 597.274 711.015 639.352C609.764 681.701 509.024 723.373 377.765 727.549L379.609 785.52C522.692 780.968 632.334 735.129 733.395 692.86C835.105 650.319 926.964 612.011 1041.17 613.352L1041.85 555.355Z" fill="#82DF9D" mask="url(#path-1-outside-1_156_12472)"/>
</g>
</svg>
