<svg width="259" height="244" viewBox="0 0 259 244" fill="none" xmlns="http://www.w3.org/2000/svg">
<path d="M46.312 114.246C46.312 105.826 47.9566 97.4875 51.1522 89.7083C54.3477 81.9284 59.0313 74.8597 64.9359 68.9054C70.8404 62.9511 77.8498 58.2279 85.5644 55.0054C93.2792 51.7833 101.548 50.1245 109.898 50.1245V114.246H46.312Z" fill="#174524"/>
<path d="M46.312 114.247C46.312 122.667 47.9566 131.005 51.1522 138.785C54.3477 146.565 59.0313 153.634 64.9359 159.588C70.8404 165.542 77.8498 170.266 85.5644 173.488C93.2792 176.71 101.548 178.369 109.898 178.369V114.247H46.312Z" fill="#2D8A48"/>
<path d="M173.483 114.247C173.483 122.667 171.839 131.005 168.644 138.785C165.449 146.565 160.765 153.634 154.86 159.588C148.955 165.542 141.946 170.266 134.231 173.488C126.517 176.71 118.248 178.369 109.898 178.369V114.247H173.483Z" fill="#44CF6C"/>
<path d="M212.688 58.851C212.688 85.441 191.312 106.996 164.945 106.996H117.203V58.851C117.203 32.2611 138.578 10.7056 164.945 10.7056C191.312 10.7056 212.688 32.2611 212.688 58.851Z" fill="#D19C1D"/>
<path d="M10.0551 221.554V200.005H19.3827C21.3118 200.005 22.9741 200.323 24.3697 200.96C25.7652 201.575 26.8427 202.468 27.602 203.638C28.3614 204.808 28.741 206.203 28.741 207.824C28.741 209.425 28.3614 210.811 27.602 211.98C26.8427 213.15 25.7652 214.053 24.3697 214.689C22.9741 215.305 21.3118 215.613 19.3827 215.613H12.8256L15.0421 213.366V221.554H10.0551ZM15.0421 213.92L12.8256 211.549H19.1056C20.6448 211.549 21.7941 211.221 22.5534 210.564C23.3128 209.908 23.6924 208.994 23.6924 207.824C23.6924 206.634 23.3128 205.711 22.5534 205.054C21.7941 204.397 20.6448 204.069 19.1056 204.069H12.8256L15.0421 201.698V213.92ZM32.6092 221.554V200.005H41.9368C43.866 200.005 45.5283 200.323 46.9238 200.96C48.3194 201.575 49.3968 202.468 50.1562 203.638C50.9155 204.808 51.2952 206.203 51.2952 207.824C51.2952 209.425 50.9155 210.811 50.1562 211.98C49.3968 213.13 48.3194 214.012 46.9238 214.628C45.5283 215.243 43.866 215.551 41.9368 215.551H35.3798L37.5963 213.366V221.554H32.6092ZM46.3082 221.554L40.9209 213.735H46.2466L51.6954 221.554H46.3082ZM37.5963 213.92L35.3798 211.58H41.6598C43.199 211.58 44.3482 211.252 45.1076 210.595C45.8669 209.918 46.2466 208.994 46.2466 207.824C46.2466 206.634 45.8669 205.711 45.1076 205.054C44.3482 204.397 43.199 204.069 41.6598 204.069H35.3798L37.5963 201.698V213.92ZM66.0208 221.924C64.3174 221.924 62.7372 221.647 61.2801 221.092C59.8435 220.538 58.5916 219.758 57.5244 218.753C56.4777 217.747 55.6568 216.567 55.0617 215.213C54.487 213.858 54.1997 212.381 54.1997 210.78C54.1997 209.179 54.487 207.701 55.0617 206.347C55.6568 204.992 56.488 203.812 57.5552 202.807C58.6224 201.801 59.8742 201.021 61.3108 200.467C62.7474 199.913 64.3072 199.636 65.99 199.636C67.6934 199.636 69.2531 199.913 70.6692 200.467C72.1058 201.021 73.3474 201.801 74.3941 202.807C75.4613 203.812 76.2924 204.992 76.8876 206.347C77.4827 207.681 77.7803 209.158 77.7803 210.78C77.7803 212.381 77.4827 213.868 76.8876 215.243C76.2924 216.598 75.4613 217.778 74.3941 218.784C73.3474 219.769 72.1058 220.538 70.6692 221.092C69.2531 221.647 67.7037 221.924 66.0208 221.924ZM65.99 217.675C66.9546 217.675 67.8371 217.511 68.6374 217.183C69.4584 216.854 70.1767 216.382 70.7923 215.767C71.408 215.151 71.88 214.423 72.2084 213.581C72.5573 212.74 72.7317 211.806 72.7317 210.78C72.7317 209.754 72.5573 208.82 72.2084 207.978C71.88 207.137 71.408 206.408 70.7923 205.793C70.1972 205.177 69.4891 204.705 68.6682 204.377C67.8473 204.048 66.9546 203.884 65.99 203.884C65.0254 203.884 64.1327 204.048 63.3118 204.377C62.5114 204.705 61.8034 205.177 61.1877 205.793C60.572 206.408 60.0897 207.137 59.7408 207.978C59.4125 208.82 59.2483 209.754 59.2483 210.78C59.2483 211.785 59.4125 212.719 59.7408 213.581C60.0897 214.423 60.5618 215.151 61.1569 215.767C61.7726 216.382 62.4909 216.854 63.3118 217.183C64.1327 217.511 65.0254 217.675 65.99 217.675ZM85.3563 221.924C83.8992 221.924 82.555 221.657 81.3236 221.123C80.1128 220.569 79.1174 219.789 78.3376 218.784L81.1081 215.459C81.7033 216.239 82.3292 216.834 82.986 217.244C83.6427 217.634 84.3507 217.829 85.1101 217.829C87.1418 217.829 88.1577 216.639 88.1577 214.258V204.007H80.5848V200.005H93.1139V213.981C93.1139 216.649 92.4572 218.64 91.1437 219.953C89.8303 221.267 87.9012 221.924 85.3563 221.924ZM102.935 208.686H113.309V212.565H102.935V208.686ZM103.304 217.552H115.033V221.554H98.3477V200.005H114.632V204.007H103.304V217.552ZM129.621 221.924C127.959 221.924 126.409 221.657 124.973 221.123C123.557 220.569 122.325 219.789 121.279 218.784C120.232 217.778 119.411 216.598 118.816 215.243C118.241 213.889 117.954 212.401 117.954 210.78C117.954 209.158 118.241 207.671 118.816 206.316C119.411 204.962 120.232 203.782 121.279 202.776C122.346 201.77 123.588 201.001 125.004 200.467C126.42 199.913 127.969 199.636 129.652 199.636C131.52 199.636 133.202 199.964 134.701 200.621C136.219 201.257 137.492 202.201 138.518 203.453L135.316 206.408C134.577 205.567 133.757 204.941 132.854 204.531C131.951 204.1 130.965 203.884 129.898 203.884C128.893 203.884 127.969 204.048 127.128 204.377C126.286 204.705 125.558 205.177 124.942 205.793C124.326 206.408 123.844 207.137 123.495 207.978C123.167 208.82 123.003 209.754 123.003 210.78C123.003 211.806 123.167 212.74 123.495 213.581C123.844 214.423 124.326 215.151 124.942 215.767C125.558 216.382 126.286 216.854 127.128 217.183C127.969 217.511 128.893 217.675 129.898 217.675C130.965 217.675 131.951 217.47 132.854 217.06C133.757 216.629 134.577 215.982 135.316 215.12L138.518 218.076C137.492 219.327 136.219 220.282 134.701 220.939C133.202 221.595 131.509 221.924 129.621 221.924ZM146.447 221.554V204.069H139.551V200.005H158.329V204.069H151.434V221.554H146.447Z" fill="#2D8A48"/>
<path d="M166.492 221.554L159.443 200.005H164.614L170.74 219.091H168.154L174.558 200.005H179.175L185.332 219.091H182.838L189.118 200.005H193.89L186.84 221.554H181.484L176.035 204.808H177.451L171.849 221.554H166.492ZM211.758 200.005H216.745V221.554H211.758V200.005ZM201.969 221.554H196.982V200.005H201.969V221.554ZM212.128 212.719H201.599V208.502H212.128V212.719ZM222.151 221.554V200.005H227.138V221.554H222.151ZM231.175 221.554V218.322L244.505 202.253L245.12 204.069H231.421V200.005H249.553V203.238L236.254 219.307L235.639 217.491H250.015V221.554H231.175Z" fill="#D19C1D"/>
</svg>
