<svg width="240" height="85" viewBox="0 0 240 85" fill="none" xmlns="http://www.w3.org/2000/svg">
<g opacity="0.5">
<path d="M35.6451 32.4647V39.9514H53.8188C53.3363 44.0929 51.8889 47.2787 49.6372 49.3495C47.064 51.8981 42.8824 54.7654 35.6451 54.7654C24.5479 54.7654 15.8631 45.8451 15.8631 34.8541C15.8631 23.863 24.3871 14.9428 35.6451 14.9428C41.5958 14.9428 46.099 17.3321 49.3156 20.3587L54.6229 15.1021C50.1197 10.8012 44.0082 7.45615 35.6451 7.45615C20.3663 7.45615 7.5 19.7215 7.5 34.8541C7.5 49.9867 20.3663 62.252 35.6451 62.252C43.8474 62.252 50.1197 59.5441 54.9446 54.6061C59.9303 49.6681 61.5386 42.6593 61.5386 37.0841C61.5386 35.3319 61.3778 33.739 61.2169 32.4647H35.6451Z" fill="#2D8A48"/>
<path d="M84.0549 26.2524C74.2443 26.2524 66.042 33.739 66.042 43.9336C66.042 54.1282 74.0834 61.6148 84.0549 61.6148C94.0263 61.6148 102.068 54.2875 102.068 44.0929C102.068 33.739 94.0263 26.2524 84.0549 26.2524ZM84.0549 54.7654C78.5867 54.7654 73.9226 50.3052 73.9226 44.0929C73.9226 37.7213 78.5867 33.4205 84.0549 33.4205C89.523 33.4205 94.1871 37.7213 94.1871 44.0929C94.1871 50.3052 89.523 54.7654 84.0549 54.7654Z" fill="#2D8A48"/>
<path d="M172.028 30.2347H171.706C169.937 28.1639 166.56 26.2524 162.217 26.2524C153.211 26.2524 145.491 33.8983 145.491 43.9336C145.491 53.8096 153.211 61.6148 162.217 61.6148C166.56 61.6148 169.937 59.7034 171.706 57.6326H172.028V60.1812C172.028 66.8714 168.329 70.5351 162.539 70.5351C157.714 70.5351 154.819 67.19 153.533 64.1635L146.778 67.0307C148.708 71.6501 154.015 77.5439 162.7 77.5439C171.867 77.5439 179.748 72.128 179.748 59.0662V27.2081H172.35V30.2347H172.028ZM163.022 54.7654C157.553 54.7654 153.533 50.1459 153.533 44.0929C153.533 37.8806 157.714 33.4205 163.022 33.4205C168.329 33.4205 172.511 38.0399 172.511 44.2522C172.671 50.3052 168.49 54.7654 163.022 54.7654Z" fill="#2D8A48"/>
<path d="M124.101 26.2524C114.291 26.2524 106.088 33.739 106.088 43.9336C106.088 54.1282 114.13 61.6148 124.101 61.6148C134.073 61.6148 142.114 54.2875 142.114 44.0929C142.114 33.739 134.073 26.2524 124.101 26.2524ZM124.101 54.7654C118.633 54.7654 113.969 50.3052 113.969 44.0929C113.969 37.7213 118.633 33.4205 124.101 33.4205C129.569 33.4205 134.233 37.7213 134.233 44.0929C134.233 50.3052 129.569 54.7654 124.101 54.7654Z" fill="#2D8A48"/>
<path d="M185.699 8.25259H193.419V61.7741H185.699V8.25259Z" fill="#2D8A48"/>
<path d="M217.221 54.7654C213.201 54.7654 210.467 53.0132 208.537 49.3495L232.5 39.6328L231.696 37.562C230.249 33.5797 225.585 26.2524 216.417 26.2524C207.25 26.2524 199.53 33.4205 199.53 43.9336C199.53 53.8096 207.089 61.6148 217.221 61.6148C225.424 61.6148 230.088 56.6768 232.179 53.8096L226.067 49.8274C223.976 52.8539 221.242 54.7654 217.221 54.7654ZM216.739 32.9426C219.956 32.9426 222.69 34.5355 223.494 36.7656L207.411 43.4557C207.25 36.1284 212.718 32.9426 216.739 32.9426Z" fill="#2D8A48"/>
</g>
</svg>
