<svg width="626" height="685" viewBox="0 0 626 685" fill="none" xmlns="http://www.w3.org/2000/svg">
<path d="M15.8353 573.646H270.434L275.737 469.105H10.5327L15.8353 573.646Z" fill="#EBEBEB"/>
<path d="M258.365 516.947H151.922L149.937 480.703H260.698L258.365 516.947ZM153.139 515.671H257.163L259.336 481.95H151.284L153.139 515.671Z" fill="#DBDBDB"/>
<path d="M256.439 558.699H156.094L154.472 525.95H258.452L256.439 558.699ZM157.34 557.423H255.222L257.105 527.225H155.819L157.34 557.423Z" fill="#DBDBDB"/>
<path d="M215.394 502.739H197.516L196.385 494.041H216.524L215.394 502.739ZM198.646 501.463H214.264L215.061 495.273H197.849L198.646 501.463Z" fill="#DBDBDB"/>
<path d="M215.394 546.695H197.516L196.385 537.997H216.524L215.394 546.695ZM198.646 545.419H214.264L215.061 539.229H197.849L198.646 545.419Z" fill="#DBDBDB"/>
<path d="M133.16 516.947H26.7158L24.731 480.703H135.492L133.16 516.947ZM27.9328 515.671H131.957L134.13 481.95H26.0783L27.9328 515.671Z" fill="#DBDBDB"/>
<path d="M131.204 558.699H30.8885L29.2659 525.95H133.29L131.204 558.699ZM32.12 557.423H130.001L131.885 527.225H30.6133L32.12 557.423Z" fill="#DBDBDB"/>
<path d="M90.188 502.739H72.3098L71.1797 494.041H91.2746L90.188 502.739ZM73.4398 501.463H89.058L89.8548 495.273H72.643L73.4398 501.463Z" fill="#DBDBDB"/>
<path d="M90.188 546.695H72.3098L71.1797 537.997H91.2746L90.188 546.695ZM73.4398 545.419H89.058L89.8258 539.302H72.643L73.4398 545.419Z" fill="#DBDBDB"/>
<path d="M38.6685 573.631L37.0603 585.026L33.844 607.903H27.5562V573.631H38.6685Z" fill="#EBEBEB"/>
<path d="M38.6685 573.631L37.0603 585.026H27.5562V573.631H38.6685Z" fill="#DBDBDB"/>
<path d="M247.601 573.631L249.209 585.026L252.411 607.903H258.699V573.631H247.601Z" fill="#EBEBEB"/>
<path d="M247.601 573.631L249.209 585.026H258.699V573.631H247.601Z" fill="#DBDBDB"/>
<path d="M581.985 441.039L562.977 441.444L553.328 441.604C550.097 441.676 546.852 441.604 543.621 441.691H542.983V441.039L542.896 424.772V424.048H543.621L562.803 424.135C569.207 424.135 575.596 424.294 581.985 424.367H582.42V424.772C582.42 427.527 582.29 430.267 582.232 432.978L581.985 441.039ZM581.985 441.039L581.782 432.848C581.782 430.151 581.623 427.483 581.594 424.816L581.985 425.222C575.596 425.294 569.207 425.454 562.803 425.454L543.621 425.541L544.345 424.816L544.273 441.039L543.621 440.401C546.779 440.401 549.938 440.401 553.111 440.473L562.644 440.647L581.985 441.039Z" fill="#EBEBEB"/>
<path d="M560.586 461.494L541.578 461.9L531.929 462.06C528.698 462.06 525.453 462.06 522.222 462.147H521.57V461.494V445.272V444.547H522.294L541.476 444.648C547.866 444.648 554.269 444.808 560.659 444.88H561.064V445.272C561.064 448.026 560.948 450.766 560.876 453.477L560.586 461.494ZM560.586 461.494L560.383 453.303C560.311 450.607 560.224 447.939 560.195 445.272L560.586 445.678C554.197 445.75 547.793 445.91 541.404 445.91L522.222 445.997L522.946 445.272L522.874 461.494L522.222 460.856C525.38 460.856 528.539 460.856 531.711 460.929L541.245 461.103L560.586 461.494Z" fill="#EBEBEB"/>
<path d="M603.384 461.494L584.376 461.9L574.727 462.06C571.496 462.06 568.265 462.06 565.02 462.147H564.382V461.494L564.295 445.272V444.547H565.02L584.202 444.648C590.606 444.648 596.995 444.808 603.384 444.88H603.79V445.272C603.79 448.026 603.659 450.766 603.601 453.477L603.384 461.494ZM603.384 461.494L603.181 453.303C603.181 450.607 603.022 447.939 602.993 445.272L603.384 445.678C596.995 445.75 590.606 445.91 584.202 445.91L565.02 445.997L565.744 445.272L565.672 461.494L565.02 460.856C568.192 460.856 571.336 460.856 574.509 460.929L584.042 461.103L603.384 461.494Z" fill="#EBEBEB"/>
<path d="M69.8612 302.502L50.8529 302.908L41.2039 303.067C37.973 303.067 34.7277 303.067 31.4969 303.154H30.8594V302.502L30.7725 286.279V285.598H31.4969H50.708C57.1117 285.598 63.501 285.772 69.8902 285.844H70.2959V286.236C70.2959 288.99 70.1655 291.73 70.093 294.427L69.8612 302.502ZM69.8612 302.502L69.6584 294.296C69.6584 291.585 69.499 288.918 69.4701 286.265L69.8612 286.656C63.472 286.656 57.0828 286.888 50.6791 286.903L31.4969 287.048L32.2213 286.323L32.1488 302.545L31.4969 301.893C34.6553 301.893 37.8137 301.893 40.9865 301.98L50.5197 302.139L69.8612 302.502Z" fill="#EBEBEB"/>
<path d="M48.4625 322.958L29.4541 323.363L19.7906 323.523C16.5743 323.595 13.3289 323.523 10.0981 323.61H9.46062V322.958L9.38818 306.735V306.01H10.1416L29.3238 306.097C35.713 306.097 42.1167 306.271 48.5059 306.344H48.9116V306.735C48.9116 309.489 48.7957 312.229 48.7233 314.926L48.4625 322.958ZM48.4625 322.958L48.2596 314.767C48.2596 312.056 48.1003 309.388 48.0713 306.735L48.4625 307.126C42.0732 307.199 35.6695 307.358 29.2803 307.373L10.1416 307.46L10.866 306.735V322.958L10.214 322.305C13.3724 322.305 16.5308 322.305 19.7037 322.392L29.2368 322.552L48.4625 322.958Z" fill="#EBEBEB"/>
<path d="M91.2747 322.958L72.2664 323.363L62.6174 323.523C59.3865 323.595 56.1557 323.523 52.9104 323.61H52.2729V322.958L52.157 306.735V306.01H52.8814L72.0636 306.097C78.4673 306.097 84.8565 306.271 91.2458 306.344H91.6514V306.735C91.6514 309.489 91.521 312.229 91.4631 314.926L91.2747 322.958ZM91.2747 322.958L91.0719 314.767C91.0719 312.056 90.9125 309.388 90.8836 306.735L91.2747 307.126C84.8855 307.199 78.4963 307.358 72.0926 307.373L52.9104 307.46L53.6348 306.735L53.6058 322.958L52.9538 322.305C56.1267 322.305 59.2706 322.305 62.4435 322.392L71.9766 322.552L91.2747 322.958Z" fill="#EBEBEB"/>
<path d="M88.5509 461.494L69.5426 461.9L59.8791 462.06C56.6627 462.06 53.4174 462.06 50.1866 462.147H49.5491V461.494V445.272V444.547H50.2735L69.4557 444.648C75.8449 444.648 82.2486 444.808 88.6379 444.88H89.0435V445.272C89.0435 448.026 88.9276 450.766 88.8552 453.477L88.5509 461.494ZM88.5509 461.494L88.3771 453.303C88.3771 450.607 88.2177 447.939 88.1887 445.272L88.5799 445.678C82.1907 445.75 75.787 445.91 69.3977 445.91L50.2155 445.997L50.9399 445.272V461.494L50.288 460.856C53.4464 460.856 56.6048 460.856 59.7776 460.929L69.2963 461.103L88.5509 461.494Z" fill="#EBEBEB"/>
<path d="M449.709 527.704L430.701 528.11L421.052 528.284C417.821 528.284 414.576 528.284 411.345 528.356H410.707V527.704L410.62 511.496V510.756H411.345L430.527 510.843C436.916 510.843 443.32 511.003 449.709 511.075H450.115V511.467C450.115 514.207 449.999 516.947 449.926 519.658L449.709 527.704ZM449.709 527.704L449.506 519.513C449.434 516.816 449.347 514.149 449.318 511.496L449.709 511.887C443.32 511.96 436.916 512.119 430.527 512.119L411.345 512.206L412.069 511.496L411.997 527.704L411.345 527.066C414.503 527.066 417.662 527.066 420.834 527.066L430.368 527.24L449.709 527.704Z" fill="#EBEBEB"/>
<path d="M579.768 90.4345L560.76 90.8404L551.111 90.9999C547.88 90.9999 544.635 90.9999 541.404 91.0869H540.767V90.4345L540.68 74.2119V73.4871H541.404L560.586 73.574C566.975 73.574 573.379 73.748 579.768 73.8205H580.174V74.2119C580.174 76.9664 580.058 79.7064 579.986 82.4029L579.768 90.4345ZM579.768 90.4345L579.522 82.2435C579.522 79.5325 579.363 76.8649 579.334 74.2119L579.725 74.6034C573.336 74.6034 566.932 74.8353 560.543 74.8498L541.361 74.9368L542.085 74.2119L542.013 90.4345L541.361 89.7821C544.519 89.7821 547.677 89.7821 550.85 89.8691L560.383 90.0285L579.768 90.4345Z" fill="#EBEBEB"/>
<path d="M601.167 110.89L582.159 111.296L572.51 111.456C569.279 111.528 566.034 111.456 562.803 111.528H562.136V110.876V94.6677V93.9429H562.861L582.043 94.0299C588.447 94.0299 594.836 94.2038 601.225 94.2763H601.631V94.6677C601.631 97.4222 601.501 100.162 601.443 102.859L601.167 110.89ZM601.167 110.89L600.964 102.699C600.964 99.9883 600.805 97.3208 600.776 94.6677L601.167 95.0592C594.778 95.1316 588.389 95.2911 581.985 95.3056L562.803 95.3926L563.527 94.6677V110.89L562.875 110.238C566.034 110.238 569.192 110.238 572.365 110.325L581.898 110.484L601.167 110.89Z" fill="#EBEBEB"/>
<path d="M60.8497 90.449L41.8269 90.8549L32.1778 91.0144C28.947 91.0144 25.7162 91.0144 22.4853 91.1014H21.8333V90.449L21.7319 74.2265V73.5016H22.4708L41.653 73.6031C48.0422 73.6031 54.4315 73.7625 60.8352 73.835H61.2264V74.2265C61.2264 76.981 61.096 79.721 61.038 82.432L60.8497 90.449ZM60.8497 90.449L60.6324 82.258C60.6324 79.547 60.473 76.8795 60.444 74.2265L60.8497 74.6179C54.446 74.7049 48.0567 74.8498 41.6675 74.8643L22.4853 74.9513L23.1952 74.2265L23.1807 90.449L22.4998 89.8836C25.6582 89.8836 28.8021 89.8836 31.975 89.8836L41.5081 90.0431L60.8497 90.449Z" fill="#EBEBEB"/>
<path d="M570.453 0H569.352V134.014H570.453V0Z" fill="#C7C7C7"/>
<path d="M524.294 178.013L527.959 186.074H611.86L615.511 178.013L579.797 153.266H560.007L524.294 178.013Z" fill="#EBEBEB"/>
<path d="M557.529 129.432L560.007 153.266H579.797L582.275 129.432H557.529Z" fill="#DBDBDB"/>
<path d="M524.294 178.013L527.974 186.074H611.86L615.525 178.013H524.294Z" fill="#DBDBDB"/>
<path d="M472.528 0H471.427V107.976H472.528V0Z" fill="#C7C7C7"/>
<path d="M426.354 151.976L430.034 160.036H513.92L517.586 151.976L481.858 127.229H462.082L426.354 151.976Z" fill="#EBEBEB"/>
<path d="M459.604 103.395L462.082 127.229H481.858L484.35 103.395H459.604Z" fill="#DBDBDB"/>
<path d="M426.369 151.976L430.034 160.051H513.935L517.586 151.976H426.369Z" fill="#DBDBDB"/>
<path d="M251.266 685C384.308 685 492.159 675.601 492.159 664.008C492.159 652.414 384.308 643.016 251.266 643.016C118.225 643.016 10.3735 652.414 10.3735 664.008C10.3735 675.601 118.225 685 251.266 685Z" fill="#EBEBEB"/>
<path d="M549.981 111.238H75.6421V445.46H549.981V111.238Z" fill="white"/>
<path d="M550.343 445.823H75.3379V110.934H550.401L550.343 445.823ZM76.0043 445.069H549.619V111.63H76.0043V445.069Z" fill="#263238"/>
<path opacity="0.1" d="M549.981 111.238H75.6421V445.46H549.981V111.238Z" fill="#2D8A48"/>
<path d="M76.9462 94.5662L76.7144 93.1309L314.217 54.3795L314.333 54.394L549.155 93.1309L548.909 94.5662L314.217 55.8438L76.9462 94.5662Z" fill="#263238"/>
<path d="M319.549 55.0899C319.551 56.1492 319.24 57.1855 318.654 58.0674C318.067 58.9494 317.233 59.6373 316.255 60.0439C315.278 60.4506 314.201 60.5578 313.163 60.3518C312.125 60.1459 311.171 59.6361 310.422 58.8871C309.674 58.1381 309.164 57.1836 308.958 56.1445C308.753 55.1054 308.86 54.0286 309.266 53.0505C309.673 52.0725 310.36 51.2371 311.241 50.6504C312.123 50.0637 313.158 49.752 314.217 49.7549C315.63 49.7587 316.984 50.322 317.983 51.3217C318.982 52.3214 319.545 53.6762 319.549 55.0899Z" fill="#EBEBEB"/>
<path d="M562.282 90.7534H63.6025V111.238H562.282V90.7534Z" fill="#37474F"/>
<path opacity="0.1" d="M549.981 111.238H75.6421V132.506H549.981V111.238Z" fill="black"/>
<path d="M555.936 445.46H69.9482V450.563H555.936V445.46Z" fill="#37474F"/>
<path d="M314.304 450.563H311.595V468.265H314.304V450.563Z" fill="#37474F"/>
<path d="M312.812 478.21C311.565 478.213 310.345 477.845 309.306 477.154C308.268 476.463 307.458 475.479 306.979 474.327C306.5 473.175 306.373 471.906 306.614 470.682C306.856 469.458 307.455 468.333 308.336 467.449C309.216 466.566 310.339 465.964 311.562 465.719C312.785 465.475 314.053 465.599 315.206 466.076C316.358 466.553 317.343 467.361 318.036 468.398C318.729 469.436 319.099 470.656 319.099 471.903C319.099 473.573 318.437 475.175 317.259 476.358C316.08 477.54 314.481 478.206 312.812 478.21ZM312.812 468.511C312.137 468.508 311.477 468.706 310.915 469.079C310.353 469.452 309.914 469.984 309.654 470.607C309.395 471.231 309.326 471.917 309.457 472.579C309.588 473.241 309.913 473.85 310.39 474.327C310.867 474.804 311.475 475.129 312.137 475.26C312.798 475.391 313.484 475.322 314.107 475.063C314.73 474.803 315.261 474.364 315.634 473.802C316.007 473.239 316.205 472.578 316.202 471.903C316.198 471.005 315.84 470.144 315.205 469.509C314.57 468.873 313.71 468.515 312.812 468.511Z" fill="#37474F"/>
<path d="M486.48 399.315H443.479V403.012H486.48V399.315Z" fill="#C7C7C7"/>
<path d="M501.591 407.042H443.479V410.739H501.591V407.042Z" fill="#C7C7C7"/>
<path d="M474.31 414.769H443.479V418.466H474.31V414.769Z" fill="#C7C7C7"/>
<path d="M433.888 399.315H424.92V408.289H433.888V399.315Z" fill="#2D8A48"/>
<path d="M120.859 180.144L351.698 179.796L506.039 180.144L351.698 180.492L120.859 180.144Z" fill="#C7C7C7"/>
<path d="M120.859 193.322L351.698 192.974L506.039 193.322L351.698 193.67L120.859 193.322Z" fill="#C7C7C7"/>
<path d="M120.859 206.515L351.698 206.167L506.039 206.515L351.698 206.862L120.859 206.515Z" fill="#C7C7C7"/>
<path d="M120.859 219.707L351.698 219.359L506.039 219.707L351.698 220.055L120.859 219.707Z" fill="#C7C7C7"/>
<path d="M120.859 232.885L351.698 232.538L506.039 232.885L351.698 233.233L120.859 232.885Z" fill="#C7C7C7"/>
<path d="M120.859 246.078L351.698 245.73L506.039 246.078L351.698 246.426L120.859 246.078Z" fill="#C7C7C7"/>
<path d="M120.859 259.256L351.698 258.908L506.039 259.256L351.698 259.604L120.859 259.256Z" fill="#C7C7C7"/>
<path d="M120.859 272.449L351.698 272.101L506.039 272.449L351.698 272.796L120.859 272.449Z" fill="#C7C7C7"/>
<path d="M120.859 285.641L351.698 285.293L506.039 285.641L351.698 285.989L120.859 285.641Z" fill="#C7C7C7"/>
<path d="M120.859 298.819L351.698 298.472L506.039 298.819L351.698 299.167L120.859 298.819Z" fill="#C7C7C7"/>
<path d="M120.859 312.012L351.698 311.664L506.039 312.012L351.698 312.36L120.859 312.012Z" fill="#C7C7C7"/>
<path d="M120.859 325.204L351.698 324.857L506.039 325.204L351.698 325.552L120.859 325.204Z" fill="#C7C7C7"/>
<path d="M120.859 338.383L351.698 338.035L506.039 338.383L351.698 338.73L120.859 338.383Z" fill="#C7C7C7"/>
<path d="M120.859 351.575L351.698 351.227L506.039 351.575L351.698 351.923L120.859 351.575Z" fill="#C7C7C7"/>
<path d="M120.859 364.753L351.698 364.42L506.039 364.753L351.698 365.101L120.859 364.753Z" fill="#C7C7C7"/>
<path d="M487.349 172.649L487.958 287.917L487.349 387.732L486.726 287.917L487.349 172.649Z" fill="#C7C7C7"/>
<path d="M464.067 172.649L464.676 287.917L464.067 387.732L463.444 287.917L464.067 172.649Z" fill="#C7C7C7"/>
<path d="M440.785 172.649L441.393 287.917L440.785 387.732L440.162 287.917L440.785 172.649Z" fill="#C7C7C7"/>
<path d="M417.502 172.649L418.125 287.917L417.502 387.732L416.894 287.917L417.502 172.649Z" fill="#C7C7C7"/>
<path d="M394.22 172.649L394.829 287.917L394.22 387.732L393.612 287.917L394.22 172.649Z" fill="#C7C7C7"/>
<path d="M370.938 172.649L371.561 287.917L370.938 387.732L370.329 287.917L370.938 172.649Z" fill="#C7C7C7"/>
<path d="M347.655 172.649L348.278 287.917L347.655 387.732L347.047 287.917L347.655 172.649Z" fill="#C7C7C7"/>
<path d="M324.373 172.649L324.996 287.917L324.373 387.732L323.765 287.917L324.373 172.649Z" fill="#C7C7C7"/>
<path d="M301.091 172.649L301.714 287.917L301.091 387.732L300.482 287.917L301.091 172.649Z" fill="#C7C7C7"/>
<path d="M277.808 172.649L278.431 287.917L277.808 387.732L277.2 287.917L277.808 172.649Z" fill="#C7C7C7"/>
<path d="M254.541 172.649L255.149 287.917L254.541 387.732L253.918 287.917L254.541 172.649Z" fill="#C7C7C7"/>
<path d="M231.258 172.649L231.867 287.917L231.258 387.732L230.635 287.917L231.258 172.649Z" fill="#C7C7C7"/>
<path d="M207.976 172.649L208.585 287.917L207.976 387.732L207.353 287.917L207.976 172.649Z" fill="#C7C7C7"/>
<path d="M184.694 172.649L185.302 287.917L184.694 387.732L184.071 287.917L184.694 172.649Z" fill="#C7C7C7"/>
<path d="M161.411 172.649L162.02 287.917L161.411 387.732L160.788 287.917L161.411 172.649Z" fill="#C7C7C7"/>
<path d="M136.362 170.88L137.318 223.201L137.97 275.508C138.419 310.388 138.564 345.254 138.636 380.135L136.362 378.845H275.215L359.434 379.004L498.302 379.425L506.039 380.193L498.302 380.961L359.434 381.382L275.215 381.541H136.362H134.073V380.251C134.159 345.37 134.29 310.504 134.739 275.624L135.405 223.317L136.362 170.88Z" fill="#C7C7C7"/>
<path d="M137.419 379.831L135.304 377.859L161.006 350.184H207.802L230.867 336.933H254.178L277.78 310.33H323.721L370.286 257.458H393.583L416.865 231.639H463.487L493.116 203.572L495.1 205.674L464.646 234.538H418.154L394.872 260.358H371.59L325.04 313.23H279.083L255.482 339.832H231.635L208.585 353.083H162.266L137.419 379.831Z" fill="#2D8A48"/>
<path d="M499.534 215.213L506.039 193.322L483.843 198.628L499.534 215.213Z" fill="#2D8A48"/>
<path d="M258.743 157.18C258.759 157.315 258.747 157.451 258.707 157.581C258.667 157.71 258.6 157.83 258.51 157.932C258.42 158.033 258.31 158.114 258.187 158.17C258.063 158.226 257.929 158.255 257.794 158.255C257.658 158.255 257.524 158.226 257.401 158.17C257.277 158.114 257.167 158.033 257.077 157.932C256.987 157.83 256.92 157.71 256.88 157.581C256.84 157.451 256.828 157.315 256.845 157.18V147.032C256.837 146.829 256.895 146.629 257.01 146.462C257.125 146.295 257.291 146.17 257.483 146.104C257.676 146.039 257.884 146.038 258.076 146.101C258.269 146.163 258.437 146.287 258.554 146.452L264.161 154.223V147.061C264.165 146.812 264.265 146.575 264.441 146.399C264.617 146.223 264.854 146.123 265.103 146.119C265.354 146.119 265.595 146.218 265.774 146.394C265.953 146.57 266.055 146.81 266.059 147.061V157.209C266.055 157.462 265.953 157.703 265.775 157.882C265.596 158.06 265.355 158.162 265.103 158.166C264.966 158.165 264.831 158.133 264.708 158.073C264.585 158.013 264.478 157.926 264.393 157.818C264.353 157.796 264.322 157.76 264.306 157.717L258.743 150.004V157.18Z" fill="#263238"/>
<path d="M269.116 157.18V146.931C269.114 146.804 269.138 146.679 269.185 146.562C269.232 146.445 269.303 146.339 269.392 146.25C269.481 146.161 269.587 146.09 269.704 146.043C269.821 145.995 269.946 145.972 270.072 145.974H275.752C276.004 145.978 276.245 146.08 276.424 146.258C276.602 146.437 276.704 146.678 276.708 146.931C276.708 147.186 276.608 147.431 276.429 147.612C276.25 147.794 276.007 147.898 275.752 147.902H271.043V151.077H275.1C275.351 151.084 275.59 151.187 275.768 151.365C275.945 151.543 276.049 151.782 276.056 152.034C276.058 152.161 276.035 152.288 275.988 152.407C275.941 152.525 275.871 152.633 275.782 152.725C275.693 152.816 275.587 152.89 275.47 152.94C275.353 152.991 275.227 153.018 275.1 153.02H271.043V156.209H275.752C275.987 156.238 276.203 156.352 276.36 156.529C276.517 156.707 276.604 156.936 276.604 157.173C276.604 157.41 276.517 157.639 276.36 157.817C276.203 157.994 275.987 158.108 275.752 158.137H270.13C270 158.145 269.869 158.126 269.747 158.082C269.624 158.037 269.511 157.968 269.416 157.878C269.321 157.789 269.246 157.68 269.194 157.56C269.142 157.44 269.116 157.311 269.116 157.18Z" fill="#263238"/>
<path d="M295.441 147.409L291.181 157.557C291.161 157.61 291.132 157.659 291.094 157.702L291.008 157.804L290.848 158.021C290.801 158.068 290.748 158.107 290.689 158.137H290.544H290.124H290.008C289.951 158.111 289.901 158.071 289.863 158.021L289.747 157.934V157.833C289.739 157.785 289.739 157.736 289.747 157.688L287.154 152.222L284.865 157.615V157.76L284.763 157.862L284.662 157.949L284.531 158.065H284.401H283.966H283.85L283.691 157.949L283.575 157.862C283.554 157.822 283.525 157.787 283.488 157.76C283.488 157.76 283.488 157.659 283.401 157.615L279.127 147.467C279.036 147.234 279.04 146.975 279.137 146.745C279.234 146.514 279.418 146.331 279.649 146.235C279.763 146.185 279.885 146.159 280.01 146.158C280.134 146.157 280.257 146.18 280.372 146.228C280.487 146.275 280.591 146.345 280.678 146.433C280.766 146.522 280.834 146.627 280.88 146.742L284.285 154.788L286.531 149.453C286.606 149.274 286.733 149.122 286.896 149.016C287.059 148.91 287.249 148.855 287.443 148.859C287.634 148.862 287.82 148.919 287.979 149.025C288.139 149.13 288.264 149.279 288.342 149.453L290.587 154.788L293.978 146.742C294.074 146.51 294.258 146.325 294.49 146.228C294.723 146.132 294.984 146.131 295.216 146.228C295.449 146.324 295.634 146.508 295.73 146.741C295.826 146.973 295.827 147.234 295.731 147.467L295.441 147.409Z" fill="#263238"/>
<path d="M310.044 153.411H307.915V157.18C307.886 157.416 307.772 157.632 307.594 157.789C307.417 157.946 307.188 158.033 306.951 158.033C306.714 158.033 306.486 157.946 306.308 157.789C306.131 157.632 306.017 157.416 305.988 157.18V146.931C305.988 146.677 306.089 146.434 306.268 146.254C306.447 146.075 306.69 145.974 306.944 145.974H310.044C310.552 145.942 311.061 146.015 311.539 146.187C312.017 146.36 312.455 146.629 312.826 146.977C313.197 147.325 313.492 147.746 313.694 148.213C313.896 148.68 314 149.184 314 149.692C314 150.201 313.896 150.705 313.694 151.172C313.492 151.639 313.197 152.059 312.826 152.408C312.455 152.756 312.017 153.025 311.539 153.198C311.061 153.37 310.552 153.443 310.044 153.411ZM307.915 151.483H310.044C310.293 151.505 310.543 151.476 310.78 151.396C311.016 151.316 311.233 151.188 311.418 151.019C311.602 150.851 311.749 150.646 311.85 150.417C311.95 150.189 312.002 149.942 312.002 149.692C312.002 149.443 311.95 149.196 311.85 148.967C311.749 148.739 311.602 148.534 311.418 148.365C311.233 148.197 311.016 148.069 310.78 147.989C310.543 147.909 310.293 147.88 310.044 147.902H307.915V151.483Z" fill="#263238"/>
<path d="M324.098 156.702C324.176 156.944 324.156 157.208 324.043 157.435C323.929 157.663 323.73 157.837 323.489 157.92C323.359 157.933 323.228 157.933 323.098 157.92C322.858 157.924 322.621 157.858 322.417 157.731C322.188 157.576 321.999 157.367 321.867 157.122C321.587 156.464 321.463 155.749 321.505 155.035C321.506 154.772 321.43 154.515 321.287 154.295C321.155 154.088 320.976 153.915 320.766 153.788C320.466 153.598 320.138 153.457 319.795 153.367H317.752V157.137C317.748 157.392 317.644 157.635 317.463 157.814C317.281 157.993 317.036 158.094 316.782 158.094C316.655 158.096 316.53 158.072 316.413 158.025C316.296 157.977 316.19 157.907 316.101 157.818C316.012 157.728 315.941 157.622 315.894 157.505C315.847 157.388 315.823 157.263 315.825 157.137V146.887C315.823 146.761 315.847 146.636 315.894 146.519C315.941 146.402 316.012 146.295 316.101 146.206C316.19 146.117 316.296 146.047 316.413 145.999C316.53 145.952 316.655 145.928 316.782 145.93H319.882C320.372 145.93 320.858 146.027 321.31 146.215C321.763 146.403 322.174 146.679 322.52 147.027C322.866 147.374 323.14 147.787 323.326 148.24C323.512 148.694 323.607 149.18 323.605 149.671C323.613 150.226 323.495 150.775 323.259 151.278C323.023 151.78 322.676 152.222 322.244 152.57C322.482 152.751 322.688 152.972 322.852 153.223C323.23 153.773 323.432 154.425 323.432 155.093C323.388 155.434 323.388 155.78 323.432 156.122C323.581 156.158 323.72 156.229 323.836 156.33C323.952 156.431 324.042 156.559 324.098 156.702ZM321.635 149.714C321.637 149.477 321.592 149.242 321.502 149.022C321.413 148.802 321.281 148.602 321.114 148.434C320.947 148.265 320.748 148.131 320.529 148.04C320.31 147.949 320.076 147.902 319.838 147.902H317.709V151.483H319.838C320.073 151.485 320.305 151.441 320.522 151.353C320.738 151.265 320.936 151.135 321.103 150.971C321.27 150.807 321.403 150.611 321.494 150.395C321.585 150.18 321.633 149.948 321.635 149.714Z" fill="#263238"/>
<path d="M336.21 147.482C337.336 148.669 337.964 150.244 337.964 151.882C337.964 153.519 337.336 155.094 336.21 156.281C335.682 156.861 335.04 157.325 334.325 157.644C333.609 157.964 332.835 158.132 332.052 158.137C331.255 158.137 330.466 157.971 329.736 157.652C329.006 157.333 328.349 156.866 327.807 156.281C326.7 155.084 326.085 153.513 326.085 151.882C326.085 150.25 326.7 148.679 327.807 147.482C328.349 146.897 329.006 146.43 329.736 146.111C330.466 145.792 331.255 145.626 332.052 145.626C332.836 145.629 333.61 145.795 334.326 146.115C335.042 146.434 335.684 146.9 336.21 147.482ZM335.978 151.831C335.98 150.705 335.562 149.619 334.805 148.786C334.456 148.402 334.031 148.093 333.557 147.881C333.084 147.669 332.571 147.558 332.052 147.554C331.523 147.552 331 147.661 330.516 147.873C330.032 148.086 329.598 148.396 329.241 148.786C328.478 149.615 328.058 150.704 328.068 151.831C328.057 152.95 328.477 154.03 329.241 154.846C329.597 155.24 330.03 155.555 330.514 155.773C330.998 155.99 331.522 156.104 332.052 156.108C332.573 156.098 333.086 155.982 333.56 155.765C334.034 155.548 334.457 155.235 334.805 154.846C335.555 154.044 335.974 152.988 335.978 151.889V151.831Z" fill="#263238"/>
<path d="M341.802 154.556C341.977 155.098 342.339 155.559 342.823 155.857C343.307 156.156 343.882 156.272 344.444 156.184C345.006 156.097 345.518 155.812 345.889 155.381C346.26 154.95 346.465 154.4 346.467 153.831V146.931C346.496 146.695 346.61 146.479 346.788 146.322C346.965 146.165 347.194 146.078 347.431 146.078C347.668 146.078 347.897 146.165 348.074 146.322C348.251 146.479 348.365 146.695 348.394 146.931V153.831C348.35 154.834 347.96 155.791 347.291 156.539C346.623 157.287 345.716 157.78 344.725 157.936C343.734 158.091 342.719 157.899 341.854 157.391C340.989 156.883 340.325 156.092 339.977 155.151C339.936 155.032 339.92 154.906 339.929 154.781C339.937 154.655 339.971 154.533 340.028 154.421C340.084 154.309 340.163 154.209 340.259 154.128C340.354 154.046 340.465 153.985 340.585 153.947C340.705 153.907 340.832 153.89 340.958 153.899C341.084 153.907 341.208 153.941 341.321 153.997C341.434 154.054 341.535 154.133 341.618 154.229C341.7 154.325 341.763 154.436 341.802 154.556Z" fill="#263238"/>
<path d="M351.205 157.18V146.931C351.203 146.804 351.226 146.679 351.274 146.562C351.321 146.445 351.391 146.339 351.481 146.25C351.57 146.161 351.676 146.09 351.793 146.043C351.91 145.995 352.035 145.972 352.161 145.974H357.855C358.107 145.978 358.348 146.08 358.527 146.258C358.705 146.437 358.807 146.678 358.811 146.931C358.811 147.186 358.711 147.431 358.532 147.612C358.353 147.794 358.11 147.898 357.855 147.902H353.146V151.077H357.189C357.44 151.084 357.679 151.187 357.857 151.365C358.034 151.543 358.137 151.782 358.145 152.034C358.147 152.161 358.123 152.288 358.076 152.407C358.029 152.525 357.959 152.633 357.871 152.725C357.782 152.816 357.676 152.89 357.559 152.94C357.442 152.991 357.316 153.018 357.189 153.02H353.146V156.209H357.855C358.09 156.238 358.307 156.352 358.464 156.529C358.621 156.707 358.707 156.936 358.707 157.173C358.707 157.41 358.621 157.639 358.464 157.817C358.307 157.994 358.09 158.108 357.855 158.137H352.205C352.075 158.143 351.946 158.123 351.825 158.077C351.704 158.032 351.594 157.962 351.5 157.873C351.407 157.783 351.332 157.676 351.282 157.557C351.231 157.438 351.205 157.31 351.205 157.18Z" fill="#263238"/>
<path d="M360.97 151.889C361 150.217 361.685 148.624 362.878 147.453C364.07 146.282 365.674 145.626 367.345 145.626C368.795 145.617 370.207 146.092 371.358 146.974C371.569 147.136 371.708 147.375 371.743 147.638C371.778 147.902 371.708 148.169 371.546 148.38C371.385 148.592 371.146 148.731 370.883 148.766C370.619 148.801 370.352 148.73 370.141 148.569C369.354 147.924 368.361 147.584 367.345 147.612C366.182 147.619 365.065 148.064 364.215 148.859C363.416 149.665 362.963 150.753 362.955 151.889C362.952 152.45 363.063 153.007 363.279 153.525C363.496 154.043 363.814 154.512 364.215 154.904C365.063 155.703 366.18 156.153 367.345 156.165C368.36 156.183 369.349 155.845 370.141 155.209C370.359 155.044 370.633 154.971 370.904 155.007C371.175 155.042 371.421 155.182 371.59 155.397C371.676 155.503 371.74 155.625 371.777 155.756C371.815 155.886 371.827 156.024 371.81 156.159C371.794 156.294 371.751 156.425 371.683 156.543C371.615 156.661 371.524 156.765 371.416 156.847C370.268 157.735 368.854 158.211 367.403 158.195C366.566 158.207 365.735 158.052 364.958 157.741C364.18 157.43 363.473 156.968 362.875 156.382C362.277 155.795 361.801 155.097 361.474 154.326C361.147 153.555 360.976 152.726 360.97 151.889Z" fill="#263238"/>
<path d="M382.354 147.873H379.587V157.151C379.587 157.405 379.486 157.648 379.307 157.828C379.128 158.007 378.885 158.108 378.631 158.108C378.377 158.108 378.134 158.007 377.955 157.828C377.776 157.648 377.675 157.405 377.675 157.151V147.873H374.937C374.682 147.869 374.438 147.765 374.26 147.583C374.081 147.402 373.98 147.157 373.98 146.902C373.978 146.776 374.002 146.65 374.049 146.533C374.096 146.416 374.167 146.31 374.256 146.221C374.345 146.132 374.451 146.061 374.568 146.014C374.685 145.966 374.81 145.943 374.937 145.945H382.354C382.608 145.945 382.851 146.046 383.031 146.225C383.21 146.405 383.311 146.648 383.311 146.902C383.311 147.157 383.21 147.402 383.031 147.583C382.853 147.765 382.609 147.869 382.354 147.873Z" fill="#263238"/>
<path d="M532.61 469.337C532.971 463.148 533.843 457 535.218 450.955C536.328 445.383 538.588 440.105 541.853 435.457C543.361 433.338 545.272 431.539 547.478 430.163C549.683 428.787 552.139 427.861 554.704 427.44C559.746 426.831 564.469 429.078 568.236 432.253C572.916 436.182 576.48 441.386 579.827 446.446C583.502 452.093 586.845 457.951 589.838 463.988C589.939 464.191 589.635 464.35 589.548 464.147C586.93 459.008 583.912 454.083 580.522 449.418C577.459 444.956 574.007 440.774 570.207 436.921C566.744 433.543 562.354 430.383 557.341 430.223C554.886 430.25 552.47 430.849 550.287 431.974C548.104 433.099 546.213 434.719 544.766 436.704C541.404 441.053 539.695 446.374 538.42 451.593C537.097 457.348 536.235 463.199 535.841 469.091C534.856 481.196 534.595 493.374 534.32 505.508C534.16 512.38 534.073 519.252 534.001 526.123L533.914 536.562C534.052 539.92 533.921 543.285 533.523 546.623C533.407 547.304 532.291 547.232 532.19 546.623C531.774 543.461 531.619 540.271 531.726 537.083C531.726 533.797 531.688 530.497 531.61 527.182C531.61 520.774 531.509 514.366 531.538 507.944C531.567 495.099 531.712 482.182 532.61 469.337Z" fill="#263238"/>
<path d="M549.894 460.204C550.532 456.783 551.691 452.332 553.632 449.679C557.138 444.909 560.876 446.982 557.428 452.259C554.831 456.185 553.147 460.644 552.502 465.307C552.502 465.307 558.399 473.73 565.541 477.876C565.237 474.629 564.324 469.656 564.962 464.829C566.324 454.434 572.597 455.014 571.047 463.277C569.915 468.769 569.429 474.374 569.598 479.978C571.968 481.525 574.517 482.776 577.19 483.704C576.784 482.501 576.35 481.051 575.871 479.355C573.351 470.033 579.566 467.119 579.754 472.367C580.161 476.838 580.97 481.264 582.174 485.589C585.578 486.734 588.404 487.517 590.142 488.126C594.597 489.793 598.576 492.525 601.733 496.085C604.968 493.161 607.652 489.68 609.658 485.806C607.499 483.951 604.065 481.167 599.299 477.804C590.374 471.497 593.503 463.524 600.559 468.482C605.673 472.048 609.629 478.63 611.425 482.081C613.844 476.157 615.216 469.859 615.482 463.466C608.499 456.812 591.113 447.635 596.387 447.635C601.095 447.635 611.628 454.536 615.482 457.203C615.384 455.391 615.186 453.586 614.888 451.796C608.281 447.446 586.824 440.72 590.258 438.748C594.011 436.617 608.991 443.561 613.511 445.75C612.662 442.805 611.32 440.026 609.542 437.53C600.414 425.309 583.956 421.09 576.784 423.424C571.699 425.077 573.177 437.922 572.09 437.53C551.662 429.339 542.39 435.153 549.894 460.204ZM599.922 458.754C601.37 457 608.078 462.147 606.137 464.959C604.196 467.772 598.053 461.016 599.922 458.798V458.754ZM564.918 447.751C566.686 448.867 564.078 455.391 561.369 453.419C559.051 451.781 563.151 446.663 564.918 447.794V447.751Z" fill="#2D8A48"/>
<path d="M567.599 449.795C568.512 447.968 569.482 446.156 570.496 444.402C571.465 442.671 572.596 441.035 573.872 439.516C573.582 439.154 573.307 438.791 573.003 438.429C572.872 438.299 573.09 438.096 573.22 438.226L574.22 439.415C574.282 439.456 574.328 439.517 574.35 439.589C575.611 441.039 576.799 442.662 577.943 444.242C579.948 444.709 581.927 445.285 583.869 445.968C585.868 446.634 587.853 447.33 589.795 448.157C589.997 448.244 589.896 448.577 589.693 448.49C587.766 447.635 585.81 446.808 583.811 446.127C581.812 445.446 580.001 444.996 578.016 444.46C578.639 445.344 579.247 446.229 579.841 447.127C583.442 448.268 586.946 449.698 590.316 451.404C593.866 453.086 597.27 455.043 600.661 457.015C600.863 457.116 600.661 457.421 600.487 457.305C597.169 455.318 593.706 453.622 590.2 451.97C586.911 450.433 583.521 449.172 580.203 447.707C588.534 460.755 593.547 475.745 600.226 489.648C600.313 489.851 600.009 490.025 599.922 489.822C597.879 484.936 595.575 480.196 593.301 475.397C591.316 471.048 589.36 466.699 587.375 462.451C586.781 461.19 586.187 459.929 585.564 458.682C585.941 465.626 585.781 472.701 586.926 479.572C586.926 479.619 586.908 479.663 586.875 479.695C586.842 479.728 586.798 479.746 586.752 479.746C586.706 479.746 586.662 479.728 586.629 479.695C586.596 479.663 586.578 479.619 586.578 479.572C586.1 472.135 584.796 464.829 584.854 457.348C584.854 457.348 584.854 457.348 584.854 457.261C583.405 454.362 581.956 451.607 580.305 448.882C577.552 455.391 574.64 461.929 573.351 468.989C573.351 469.192 572.974 469.105 573.032 468.888C574.901 461.886 576.639 454.869 580.015 448.389C578.245 445.442 576.285 442.614 574.147 439.922C573.22 441.662 572.032 443.286 570.975 444.938C569.917 446.591 568.946 448.186 567.99 449.853C565.938 453.369 564.193 457.055 562.774 460.871C562.774 461.088 562.354 460.972 562.441 460.769C564.165 457.116 565.773 453.39 567.599 449.795Z" fill="#263238"/>
<path d="M501.881 465.611C507.242 460.247 513.472 453.202 521.715 453.216C529.698 453.216 535.566 459.668 538.942 466.264C542.477 473.194 543.737 481.051 544.737 488.691C545.904 497.831 546.61 507.025 546.852 516.236C546.997 521.354 546.982 526.486 546.852 531.603C546.853 536.792 546.461 541.972 545.678 547.101C545.534 547.927 544.23 547.956 544.157 547.101C543.911 542.752 544.157 538.403 544.157 534.14C544.157 529.878 544.157 525.645 543.954 521.397C543.636 512.8 543.013 504.232 542.013 495.693C541.129 488.227 540.434 480.558 538.203 473.368C536.189 466.873 532.407 459.436 525.83 456.58C516.847 452.68 508.082 459.798 502.2 465.814C501.997 465.988 501.736 465.771 501.881 465.611Z" fill="#263238"/>
<path d="M474.6 477.615C474.6 478.703 474.701 479.79 474.774 480.848C477.351 478.933 480.363 477.688 483.539 477.224C491.131 476.412 490.653 482.182 485.582 482.428C482.011 482.476 478.479 483.184 475.165 484.516C476.396 494.548 479.149 502.609 479.511 502.725C486.271 502.34 492.995 501.483 499.635 500.159C497.737 496.128 493.449 490.779 495.637 490.344C497.824 489.909 500.215 494.693 501.432 499.796C506.393 498.858 511.272 497.525 516.021 495.81C512.689 492.91 507.517 489.329 509.502 487.792C511.487 486.256 515.558 491.33 518.021 495.041C520.26 494.111 522.377 492.908 524.323 491.46C519.832 484.85 508.864 483.501 510.284 478.717C511.704 473.933 521.976 480.573 526.583 489.431C532.002 483.806 533.581 475.861 533.016 469.134C528.307 468.583 519.238 469.584 519.89 466.235C520.542 462.886 527.134 463.495 532.465 465.467C531.965 462.785 530.893 460.244 529.321 458.015C524.352 451.636 509.197 459.74 509.197 459.74C509.197 459.74 510.82 444.503 505.039 441.865C501.707 440.415 495.825 440.415 489.928 443.836C493.232 444.112 497.172 445.156 498.838 447.461C500.896 450.36 497.65 451.984 495.593 450.636C494.144 449.664 491.421 446.649 486.538 446.287C484.43 448.038 482.569 450.067 481.004 452.317C480.453 453.1 479.931 453.941 479.41 454.84C482.206 453.579 485.246 452.954 488.312 453.009C491.379 453.064 494.394 453.799 497.143 455.159C503.721 458.421 500.041 465.307 494.391 462.596C488.74 459.885 483.365 457.334 477.367 458.841C475.25 464.252 474.264 470.04 474.469 475.847C477.398 473.698 480.699 472.111 484.205 471.164C490.74 469.453 492.71 473.353 485.538 474.063C481.689 474.491 477.967 475.699 474.6 477.615ZM482.539 467.119C482.09 465.003 486.726 464.394 487.494 466.104C488.146 467.583 482.988 469.236 482.539 467.119ZM522.179 478.848C522.613 477.688 525.714 479.007 525.439 480.442C525.047 482.37 521.759 480.007 522.179 478.848ZM500.302 486.27C502.562 485.371 506.097 490.996 503.619 492.287C501.142 493.577 498.389 487.024 500.302 486.27Z" fill="#2D8A48"/>
<path d="M480.453 501.608C483.858 495.911 487.219 490.185 490.798 484.589C492.469 481.989 494.207 479.437 496.013 476.934L495.202 476.745L493.855 476.485C492.811 476.296 491.754 476.151 490.696 476.035C489.639 475.919 488.711 475.89 487.712 475.876C486.641 475.817 485.568 475.876 484.51 476.05C484.379 476.05 484.365 475.876 484.51 475.876C485.582 475.876 486.668 475.774 487.741 475.76C488.813 475.745 489.798 475.76 490.841 475.832C491.884 475.905 492.768 475.992 493.739 476.137L495.318 476.412C495.637 476.412 495.97 476.528 496.274 476.615C498.119 474.083 500.051 471.599 502.069 469.163C496.18 466.286 489.904 464.279 483.438 463.205C483.322 463.205 483.365 463.016 483.438 463.045C490.001 463.95 496.381 465.883 502.345 468.772C503.431 467.438 504.518 466.104 505.619 464.785C506.72 463.466 508.169 461.886 509.284 460.276C509.357 460.175 509.502 460.276 509.429 460.378C507.89 462.066 506.439 463.832 505.083 465.669C507.512 467.37 509.825 469.229 512.008 471.236C514.268 473.237 516.485 475.325 518.629 477.456C518.629 477.528 518.629 477.659 518.513 477.586C516.384 475.47 514.167 473.455 511.878 471.541C509.589 469.627 507.155 467.873 504.851 465.974L503.257 468.062L502.46 469.105V469.178L499.809 472.657C500.839 474.148 501.722 475.736 502.446 477.398C503.214 479.007 503.895 480.674 504.489 482.341C505.724 485.819 506.692 489.386 507.386 493.012C507.386 493.113 507.242 493.171 507.213 493.012C506.491 489.442 505.454 485.944 504.112 482.559C503.46 480.805 502.663 479.109 501.924 477.427C501.186 475.745 500.36 474.397 499.693 472.846C498.94 473.861 498.172 474.875 497.433 475.905L496.796 476.803C496.796 476.876 496.796 476.963 496.709 476.963C494.376 480.225 492.145 483.574 489.972 486.966C490.111 487.195 490.214 487.445 490.276 487.705C490.421 488.111 490.551 488.532 490.667 488.938C490.868 489.77 491.028 490.612 491.145 491.46C491.29 492.272 491.406 493.07 491.479 493.881C491.495 494.807 491.563 495.732 491.681 496.65C491.681 496.781 491.493 496.795 491.522 496.65C491.582 495.786 491.519 494.917 491.334 494.07C491.203 493.2 491.044 492.316 490.841 491.46C490.638 490.605 490.45 489.895 490.218 489.126C490.102 488.735 489.972 488.358 489.841 487.981C489.711 487.604 489.668 487.561 489.61 487.343C488.595 488.938 487.581 490.532 486.596 492.142L480.801 501.71C480.612 501.884 480.352 501.739 480.453 501.608Z" fill="#263238"/>
<path d="M532.958 545.318C533.045 542.085 533.552 538.838 533.9 535.634C534.247 532.43 534.624 529.182 534.972 525.964C535.409 519.691 536.256 513.454 537.507 507.291C538.588 501.984 541.232 497.121 545.099 493.33C547.099 491.333 549.721 490.08 552.531 489.779C555.365 489.693 558.146 490.55 560.442 492.214C563.045 494.142 565.291 496.512 567.077 499.216C569.006 501.896 570.739 504.711 572.264 507.639C572.264 507.755 572.148 507.828 572.09 507.639C569.215 502.752 565.405 498.48 560.876 495.07C558.854 493.432 556.396 492.424 553.806 492.171C552.54 492.154 551.283 492.387 550.107 492.857C548.931 493.327 547.859 494.025 546.953 494.911C543.345 498.387 540.828 502.841 539.709 507.726C538.388 513.403 537.449 519.161 536.899 524.964C536.449 528.371 536.015 531.792 535.566 535.213C535.116 538.635 534.827 542.085 534.117 545.448C534.108 545.525 534.085 545.598 534.048 545.665C534.011 545.732 533.961 545.792 533.901 545.839C533.841 545.887 533.772 545.923 533.699 545.944C533.625 545.965 533.548 545.972 533.472 545.963C533.396 545.955 533.322 545.931 533.255 545.894C533.188 545.857 533.129 545.807 533.081 545.747C533.034 545.687 532.998 545.618 532.977 545.545C532.956 545.471 532.949 545.394 532.958 545.318Z" fill="#263238"/>
<path d="M548.822 520.252C549.825 521.602 551.01 522.807 552.343 523.833C551.807 520.687 551.169 515.134 552.748 512.104C555.226 507.48 558.138 509.785 556.675 513.815C555.197 517.442 554.391 521.309 554.299 525.225C557.653 527.333 561.247 529.032 565.005 530.284C564.606 528.472 564.489 526.609 564.658 524.761C565.15 519.817 568.932 519.904 567.946 525.051C567.584 527.045 567.414 529.069 567.439 531.096C572.898 532.78 578.478 534.04 584.129 534.865C587.017 531.119 589.345 526.973 591.04 522.557C587.027 521.542 578.87 521.31 579.044 518.44C579.276 514.569 587.172 517.541 591.794 520.353C592.869 516.987 593.359 513.462 593.242 509.93C589.619 508.925 585.899 508.308 582.145 508.089C573.857 507.378 574.263 502.681 580.276 502.783C584.622 502.87 590.301 505.581 592.953 506.987C591.229 495.708 582.637 488.488 575.741 488.213C564.15 487.749 568.323 502.174 568.323 502.174C568.323 502.174 560.47 496.65 553.053 496.795C545.635 496.94 540.897 509.219 548.822 520.252ZM579.783 499.39C579.522 497.767 584.695 497.375 584.97 499.39C585.318 501.797 580.044 501.043 579.783 499.39ZM588.099 516.323C587.998 515.265 590.229 515.076 590.736 516.41C591.113 517.28 588.215 517.367 588.099 516.323ZM560.268 517.309C562.021 517.555 563.02 523.804 560.007 523.673C557.79 523.586 558.79 517.092 560.268 517.309Z" fill="#2D8A48"/>
<path d="M562.687 524.253C562.977 523.47 563.238 522.673 563.484 521.89C563.248 522.686 563.055 523.495 562.905 524.311C562.876 524.471 562.629 524.398 562.687 524.253Z" fill="#263238"/>
<path d="M563.484 521.904C563.484 521.716 563.6 521.528 563.644 521.339C563.586 521.513 563.586 521.702 563.484 521.904Z" fill="#263238"/>
<path d="M513.587 539.041L514.398 556.307L516.499 600.799H562.368L564.469 556.307L565.281 539.041H513.587Z" fill="#37474F"/>
<path d="M513.587 539.041L514.398 556.307H564.469L565.281 539.041H513.587Z" fill="#263238"/>
<path d="M510.313 546.014H568.541V532.053H510.313V546.014Z" fill="#37474F"/>
<path d="M558.66 600.799H550.604V608.106H558.66V600.799Z" fill="#37474F"/>
<path d="M558.66 600.799H550.604V604.453H558.66V600.799Z" fill="#263238"/>
<path d="M528.249 600.799H520.208V608.106H528.249V600.799Z" fill="#37474F"/>
<path d="M528.249 600.799H520.208V604.453H528.249V600.799Z" fill="#263238"/>
<path d="M10.5327 607.917L86.1314 607.569L161.745 607.439L312.942 607.193L464.139 607.439L539.753 607.569L615.351 607.917L539.753 608.279L464.139 608.41L312.942 608.642L161.745 608.395L86.1314 608.279L10.5327 607.917Z" fill="#263238"/>
<path opacity="0.1" d="M75.6421 445.272H549.981L403.898 546.695H375.386L75.6421 445.272Z" fill="#2D8A48"/>
<path d="M468.703 571.892H302.858V580.909H468.703V571.892Z" fill="#37474F"/>
<path d="M459.634 580.909H311.942V589.926H459.634V580.909Z" fill="#455A64"/>
<path d="M311.957 664.791H308.306L318.911 589.926H328.213L311.957 664.791Z" fill="#455A64"/>
<path d="M328.212 589.941L327.126 598.393H318.201L318.911 589.941H328.212Z" fill="#263238"/>
<path d="M459.619 664.791H463.256L452.65 589.926H443.349L459.619 664.791Z" fill="#455A64"/>
<path d="M443.364 589.941L444.45 598.393H453.36L452.65 589.941H443.364Z" fill="#263238"/>
<path d="M426.847 541.331H343.135C338.302 541.331 334.384 545.252 334.384 550.088V558.902C334.384 563.738 338.302 567.658 343.135 567.658H426.847C431.68 567.658 435.598 563.738 435.598 558.902V550.088C435.598 545.252 431.68 541.331 426.847 541.331Z" fill="#DBDBDB"/>
<path d="M382.934 546.927H344.917V548.681H382.934V546.927Z" fill="#263238"/>
<path d="M382.934 549.856H344.917V551.61H382.934V549.856Z" fill="#263238"/>
<path d="M382.934 552.799H344.917V554.553H382.934V552.799Z" fill="#263238"/>
<path d="M382.934 555.727H344.917V557.481H382.934V555.727Z" fill="#263238"/>
<path d="M425.065 546.927H387.049V548.681H425.065V546.927Z" fill="#263238"/>
<path d="M425.065 549.856H387.049V551.61H425.065V549.856Z" fill="#263238"/>
<path d="M425.065 552.799H387.049V554.553H425.065V552.799Z" fill="#263238"/>
<path d="M425.065 555.727H387.049V557.481H425.065V555.727Z" fill="#263238"/>
<path d="M360.333 560.221H346.815V564.643H360.333V560.221Z" fill="#A6A6A6"/>
<path d="M374.502 560.729H367.446C366.993 560.729 366.558 560.909 366.237 561.23C365.917 561.551 365.737 561.986 365.737 562.439C365.737 562.893 365.917 563.328 366.237 563.649C366.558 563.97 366.993 564.15 367.446 564.15H374.502C374.955 564.15 375.39 563.97 375.711 563.649C376.031 563.328 376.211 562.893 376.211 562.439C376.211 561.986 376.031 561.551 375.711 561.23C375.39 560.909 374.955 560.729 374.502 560.729Z" fill="#A6A6A6"/>
<path d="M413.634 559.743H402.522C401.807 559.743 401.122 560.027 400.616 560.533C400.111 561.038 399.827 561.724 399.827 562.439C399.827 563.155 400.111 563.84 400.616 564.346C401.122 564.852 401.807 565.136 402.522 565.136H413.634C414.349 565.136 415.034 564.852 415.54 564.346C416.045 563.84 416.329 563.155 416.329 562.439C416.329 561.724 416.045 561.038 415.54 560.533C415.034 560.027 414.349 559.743 413.634 559.743Z" fill="#C7C7C7"/>
<path d="M390.729 562.497C390.729 563.1 390.55 563.688 390.216 564.189C389.881 564.689 389.406 565.08 388.85 565.31C388.294 565.541 387.683 565.601 387.092 565.483C386.502 565.366 385.96 565.076 385.535 564.65C385.109 564.224 384.819 563.682 384.702 563.091C384.585 562.501 384.645 561.889 384.875 561.332C385.105 560.776 385.495 560.301 385.996 559.966C386.496 559.631 387.084 559.453 387.686 559.453C388.086 559.451 388.483 559.528 388.853 559.681C389.223 559.833 389.559 560.057 389.842 560.34C390.125 560.623 390.349 560.96 390.501 561.33C390.653 561.7 390.73 562.097 390.729 562.497Z" fill="#A6A6A6"/>
<path d="M404.97 562.497C404.97 562.836 404.87 563.166 404.682 563.448C404.494 563.729 404.227 563.948 403.915 564.078C403.602 564.207 403.259 564.241 402.927 564.175C402.595 564.109 402.291 563.946 402.052 563.707C401.813 563.468 401.65 563.163 401.584 562.831C401.518 562.499 401.552 562.155 401.681 561.843C401.811 561.53 402.03 561.263 402.311 561.075C402.592 560.887 402.922 560.787 403.261 560.787C403.714 560.787 404.149 560.967 404.469 561.288C404.79 561.609 404.97 562.044 404.97 562.497Z" fill="#A6A6A6"/>
<path d="M409.78 562.497C409.78 562.836 409.68 563.166 409.492 563.448C409.304 563.729 409.037 563.948 408.725 564.078C408.413 564.207 408.069 564.241 407.737 564.175C407.405 564.109 407.101 563.946 406.862 563.707C406.623 563.468 406.46 563.163 406.394 562.831C406.328 562.499 406.362 562.155 406.491 561.843C406.621 561.53 406.84 561.263 407.121 561.075C407.402 560.887 407.733 560.787 408.071 560.787C408.524 560.787 408.959 560.967 409.28 561.288C409.6 561.609 409.78 562.044 409.78 562.497Z" fill="#A6A6A6"/>
<path d="M414.59 562.497C414.59 562.836 414.49 563.166 414.302 563.448C414.114 563.729 413.847 563.948 413.535 564.078C413.223 564.207 412.879 564.241 412.547 564.175C412.216 564.109 411.911 563.946 411.672 563.707C411.433 563.468 411.27 563.163 411.204 562.831C411.138 562.499 411.172 562.155 411.301 561.843C411.431 561.53 411.65 561.263 411.931 561.075C412.212 560.887 412.543 560.787 412.881 560.787C413.334 560.787 413.769 560.967 414.09 561.288C414.41 561.609 414.59 562.044 414.59 562.497Z" fill="#A6A6A6"/>
<path d="M358.666 560.932H348.452V563.947H358.666V560.932Z" fill="#455A64"/>
<path d="M373.604 561.164H368.33C367.992 561.164 367.667 561.298 367.428 561.537C367.189 561.776 367.055 562.101 367.055 562.439C367.055 562.778 367.189 563.102 367.428 563.341C367.667 563.581 367.992 563.715 368.33 563.715H373.604C373.942 563.715 374.266 563.581 374.505 563.341C374.744 563.102 374.878 562.778 374.878 562.439C374.878 562.101 374.744 561.776 374.505 561.537C374.266 561.298 373.942 561.164 373.604 561.164Z" fill="#37474F"/>
<path d="M389.729 562.497C389.729 562.907 389.607 563.308 389.38 563.649C389.152 563.99 388.828 564.256 388.45 564.413C388.071 564.57 387.655 564.611 387.253 564.531C386.851 564.451 386.482 564.253 386.192 563.963C385.902 563.673 385.705 563.304 385.625 562.902C385.545 562.5 385.586 562.083 385.743 561.704C385.9 561.325 386.165 561.001 386.506 560.774C386.847 560.546 387.247 560.424 387.657 560.424C387.93 560.422 388.2 560.475 388.452 560.578C388.704 560.682 388.934 560.834 389.126 561.027C389.319 561.22 389.472 561.449 389.575 561.702C389.678 561.954 389.731 562.225 389.729 562.497Z" fill="#263238"/>
<path d="M404.478 562.497C404.474 562.818 404.344 563.124 404.116 563.349C403.888 563.574 403.581 563.701 403.261 563.701C402.942 563.701 402.636 563.574 402.41 563.348C402.185 563.123 402.058 562.817 402.058 562.497C402.058 562.177 402.184 561.869 402.409 561.641C402.634 561.413 402.94 561.283 403.261 561.28C403.582 561.283 403.89 561.413 404.117 561.64C404.344 561.868 404.474 562.176 404.478 562.497Z" fill="#455A64"/>
<path d="M408.071 563.643C408.735 563.643 409.273 563.104 409.273 562.439C409.273 561.775 408.735 561.236 408.071 561.236C407.407 561.236 406.868 561.775 406.868 562.439C406.868 563.104 407.407 563.643 408.071 563.643Z" fill="#2D8A48"/>
<path d="M414.098 562.497C414.094 562.818 413.964 563.124 413.736 563.349C413.508 563.574 413.201 563.701 412.881 563.701C412.562 563.701 412.256 563.574 412.03 563.348C411.805 563.123 411.678 562.817 411.678 562.497C411.678 562.177 411.804 561.869 412.03 561.641C412.255 561.413 412.561 561.283 412.881 561.28C413.202 561.283 413.51 561.413 413.737 561.64C413.965 561.868 414.094 562.176 414.098 562.497Z" fill="white"/>
<path d="M403.884 562.497C403.884 562.662 403.818 562.821 403.701 562.937C403.584 563.054 403.426 563.12 403.261 563.12C403.095 563.12 402.937 563.054 402.82 562.937C402.703 562.821 402.638 562.662 402.638 562.497C402.638 562.332 402.703 562.173 402.82 562.056C402.937 561.94 403.095 561.874 403.261 561.874C403.426 561.874 403.584 561.94 403.701 562.056C403.818 562.173 403.884 562.332 403.884 562.497Z" fill="#263238"/>
<path d="M408.071 563.062C408.415 563.062 408.694 562.783 408.694 562.439C408.694 562.095 408.415 561.816 408.071 561.816C407.727 561.816 407.448 562.095 407.448 562.439C407.448 562.783 407.727 563.062 408.071 563.062Z" fill="#263238"/>
<path d="M413.518 562.497C413.514 562.663 413.445 562.822 413.326 562.938C413.207 563.055 413.047 563.12 412.881 563.12C412.715 563.12 412.557 563.054 412.44 562.937C412.323 562.821 412.258 562.662 412.258 562.497C412.258 562.33 412.323 562.17 412.439 562.051C412.556 561.932 412.714 561.863 412.881 561.859C413.05 561.859 413.212 561.927 413.331 562.046C413.451 562.166 413.518 562.328 413.518 562.497Z" fill="#263238"/>
<path d="M355.262 567.644H347.453V570.398H355.262V567.644Z" fill="#37474F"/>
<path d="M353.929 570.398H348.785V572.24H353.929V570.398Z" fill="#263238"/>
<path d="M421.211 570.398H416.068V572.24H421.211V570.398Z" fill="#263238"/>
<path d="M422.544 567.644H414.735V570.398H422.544V567.644Z" fill="#37474F"/>
<path d="M242.182 656.73C239.067 657.73 147.242 656.571 143.895 654.382C142.62 653.57 149.067 567.122 149.067 567.122L208.468 567.716L202.152 625.561C202.152 625.561 235.894 641.189 239.328 643.987C242.762 646.785 245.297 655.686 242.182 656.73Z" fill="#AD6359"/>
<path d="M243.196 657.933C239.922 659.006 147.199 658.136 143.664 655.846C142.302 654.99 144.258 624.387 144.258 624.227H201.616V625.242C201.616 625.242 237.256 641.595 240.878 644.538C244.5 647.481 246.471 656.89 243.196 657.933Z" fill="#2D8A48"/>
<path d="M242.95 654.308C227.187 653.772 163.585 653.106 147.966 653.772C147.836 653.772 147.836 653.859 147.966 653.874C163.57 654.743 227.173 654.888 242.936 654.555C243.269 654.555 243.269 654.308 242.95 654.308Z" fill="#263238"/>
<path d="M208.338 624.459C202.137 623.241 194.546 624.126 189.765 628.504C189.576 628.663 189.765 628.924 190.025 628.866C195.968 627.009 202.093 625.794 208.295 625.242C208.399 625.248 208.5 625.212 208.578 625.143C208.655 625.073 208.702 624.976 208.708 624.872C208.713 624.768 208.678 624.667 208.608 624.589C208.539 624.512 208.442 624.465 208.338 624.459Z" fill="#263238"/>
<path d="M212.786 627.199C206.6 625.981 198.993 626.866 194.227 631.244C194.038 631.403 194.227 631.664 194.473 631.606C200.421 629.748 206.55 628.533 212.757 627.982C212.861 627.986 212.962 627.948 213.038 627.878C213.114 627.807 213.159 627.709 213.163 627.605C213.167 627.501 213.129 627.4 213.058 627.324C212.988 627.248 212.89 627.203 212.786 627.199Z" fill="#263238"/>
<path d="M217.234 629.939C211.047 628.721 203.456 629.606 198.675 633.984C198.486 634.158 198.675 634.419 198.935 634.346C204.878 632.486 211.003 631.271 217.205 630.722C217.309 630.726 217.41 630.688 217.486 630.617C217.562 630.547 217.607 630.449 217.611 630.345C217.614 630.241 217.577 630.14 217.506 630.064C217.436 629.988 217.338 629.943 217.234 629.939Z" fill="#263238"/>
<path d="M205.861 625.082H141.983C141.983 625.082 155.022 475.426 154.501 472.86C153.863 469.511 150.154 454.405 145.069 434.66C143.504 428.484 141.809 421.859 140.042 414.987C135.275 396.416 130.03 376.105 125.452 358.447C118.585 331.989 113.224 311.432 113.224 311.432H167.366C167.366 311.432 173.683 331.439 181.637 357.476C194.589 399.808 211.902 458.058 213.612 472.222C216.365 495.056 205.861 625.082 205.861 625.082Z" fill="#37474F"/>
<path d="M203.035 614.18C193.27 613.977 196.081 613.89 186.316 613.803C181.535 613.803 150.169 613.485 145.75 614.224C145.648 614.224 145.648 614.397 145.75 614.426C150.212 615.165 181.579 614.89 186.316 614.832C196.081 614.745 193.27 614.673 203.035 614.455C203.064 614.446 203.09 614.427 203.108 614.403C203.125 614.378 203.135 614.348 203.135 614.318C203.135 614.287 203.125 614.258 203.108 614.233C203.09 614.208 203.064 614.19 203.035 614.18Z" fill="#263238"/>
<path d="M123.062 318.739L133 353.837L142.707 389.007C145.938 400.721 149.053 412.479 152.168 424.236C155.283 435.993 158.354 447.751 161.223 459.581C161.904 462.553 162.672 465.51 163.193 468.511C163.353 469.265 163.454 470.048 163.599 470.802C163.599 471.222 163.672 471.686 163.599 472.077L163.512 473.223L163.164 477.76L161.716 495.94L158.818 532.314L155.92 568.673L152.834 605.018L155.254 568.615L157.818 532.227L160.557 495.81L161.904 477.615L162.252 473.063V471.932C162.252 471.57 162.252 471.28 162.252 470.932C162.121 470.207 162.02 469.482 161.861 468.728C161.281 465.829 160.557 462.814 159.876 459.856C154.182 436.24 147.836 412.754 141.679 389.239L123.062 318.739Z" fill="#263238"/>
<path d="M166.062 311.403C162.295 340.499 148.676 388.834 143.475 428.411C131.262 380.454 113.209 311.403 113.209 311.403H166.062Z" fill="#263238"/>
<path d="M35.5682 656.223C38.6976 657.194 115.832 657.542 119.164 655.309C120.454 654.483 120.903 641.464 121.004 625.72V625.227C121.004 621.98 128.495 567.47 128.495 567.47L70.2236 568.673L63.4867 625.923V626.895C63.4867 626.895 41.7546 640.537 38.3209 643.393C34.8872 646.249 32.4243 655.28 35.5682 656.223Z" fill="#AD6359"/>
<path d="M31.7577 657.933C35.032 659.006 117.976 658.136 121.584 655.846C122.946 654.99 120.99 624.387 120.99 624.227H63.559V625.242C63.559 625.242 37.6688 641.595 34.0903 644.538C30.5117 647.481 28.4834 656.89 31.7577 657.933Z" fill="#2D8A48"/>
<path d="M32.0041 654.308C47.7671 653.772 101.547 653.106 117.208 653.772C117.339 653.772 117.339 653.859 117.208 653.874C101.605 654.743 47.7671 654.888 32.0041 654.555C31.6708 654.555 31.6708 654.308 32.0041 654.308Z" fill="#263238"/>
<path d="M60.6904 625.938C66.7754 624.242 74.4106 624.488 79.5249 628.518C79.7132 628.678 79.5249 628.953 79.2931 628.91C73.2417 627.519 67.0583 626.785 60.8498 626.721C60.7547 626.723 60.6619 626.691 60.5876 626.632C60.5133 626.573 60.4622 626.489 60.4432 626.396C60.4242 626.303 60.4386 626.206 60.4838 626.122C60.529 626.038 60.6021 625.973 60.6904 625.938Z" fill="#263238"/>
<path d="M56.5033 629.011C62.5738 627.315 70.2235 627.561 75.3378 631.606C75.5406 631.751 75.3378 632.041 75.106 631.983C69.0003 630.595 62.7643 629.861 56.5033 629.794C56.4176 629.771 56.342 629.719 56.2881 629.649C56.2343 629.578 56.2051 629.492 56.2051 629.403C56.2051 629.314 56.2343 629.227 56.2881 629.157C56.342 629.086 56.4176 629.035 56.5033 629.011Z" fill="#263238"/>
<path d="M52.2438 632.085C58.3288 630.388 65.964 630.635 71.0782 634.665C71.2811 634.825 71.0783 635.1 70.8609 635.057C64.79 633.664 58.5876 632.926 52.3597 632.853C52.2642 632.856 52.171 632.823 52.0977 632.762C52.0245 632.701 51.9762 632.615 51.9619 632.52C51.9476 632.426 51.9684 632.329 52.0204 632.249C52.0723 632.169 52.1517 632.11 52.2438 632.085Z" fill="#263238"/>
<path d="M166.062 311.403C166.062 311.403 157.847 361.463 157.282 363.072C157.282 363.072 154.24 364.521 148.734 367.073L124.785 625.474L60.5889 625.735L95.9977 311.403H166.062Z" fill="#37474F"/>
<path d="M122.583 614.05C112.775 613.89 115.6 613.789 105.792 613.745C100.982 613.745 69.4556 613.572 64.9643 614.339C64.8629 614.339 64.8774 614.513 64.9643 614.542C69.4556 615.267 100.996 614.847 105.792 614.789C115.6 614.644 112.775 614.586 122.583 614.339C122.622 614.339 122.659 614.324 122.686 614.297C122.713 614.27 122.728 614.233 122.728 614.195C122.728 614.156 122.713 614.119 122.686 614.092C122.659 614.065 122.622 614.05 122.583 614.05Z" fill="#263238"/>
<path d="M159.962 361.52C153.575 364.181 147.432 367.398 141.606 371.132C141.57 371.164 141.545 371.207 141.535 371.254C141.526 371.302 141.532 371.351 141.554 371.394C141.576 371.437 141.611 371.472 141.654 371.493C141.698 371.514 141.747 371.519 141.794 371.509C147.995 368.494 154.312 365.594 160.325 362.245C160.414 362.194 160.481 362.11 160.511 362.011C160.54 361.911 160.531 361.805 160.485 361.712C160.439 361.62 160.359 361.548 160.262 361.513C160.165 361.477 160.058 361.48 159.962 361.52Z" fill="#263238"/>
<path d="M157.601 332.845C156.587 338.832 156.022 344.921 155.355 350.952C155.181 352.402 155.008 353.851 154.863 355.301C154.818 356.636 154.461 357.942 153.82 359.114C152.516 361.129 150.183 362.013 148.024 362.999C147.778 363.101 147.879 363.492 148.155 363.405C150.427 362.858 152.525 361.746 154.254 360.172C156.181 358.143 156.123 355.055 156.413 352.431C157.279 345.946 157.763 339.416 157.862 332.874C157.92 332.714 157.615 332.685 157.601 332.845Z" fill="#263238"/>
<path d="M150.314 334.671C150.096 339.021 149.618 343.37 149.256 347.618C149.082 349.734 148.937 351.865 148.807 353.996C148.676 356.127 148.416 358.346 148.488 360.549C148.488 360.584 148.502 360.617 148.526 360.641C148.551 360.666 148.584 360.68 148.618 360.68C148.653 360.68 148.686 360.666 148.711 360.641C148.735 360.617 148.749 360.584 148.749 360.549C149.111 358.491 149.155 356.359 149.328 354.286C149.502 352.213 149.647 349.937 149.778 347.748C150.009 343.399 150.14 339.05 150.531 334.7C150.545 334.541 150.314 334.541 150.314 334.671Z" fill="#263238"/>
<path d="M147.416 373.481L143.982 402.867L140.404 432.239L133.015 490.938L125.307 549.609L121.337 578.923L117.237 608.222L120.671 578.836L124.264 549.464L131.653 490.764L139.346 432.094L143.316 402.78L147.416 373.481Z" fill="#263238"/>
<path d="M147.3 252.254C163.237 266.142 192.793 285.163 204.687 288.033C217.915 291.237 242.53 258.473 258.771 238.38C262.002 234.379 232.577 207.356 229.346 211.792C220.899 223.39 204.108 249.485 200.891 249.775C198.255 250.036 172.654 242.019 158.253 237.336C135.318 229.812 136.188 242.396 147.3 252.254Z" fill="#AD6359"/>
<path d="M273.288 220.896C269.985 228.145 257.351 240.555 253.15 242.352C248.948 244.15 227.303 223.361 227.796 218.707C228.288 214.053 241.356 190.249 248.673 186.523C255.989 182.797 276.722 213.3 273.288 220.896Z" fill="#AD6359"/>
<path d="M229.317 214.256C229.599 207.762 228.93 201.261 227.332 194.96C225.173 187.523 221.117 176.723 225.072 175.403C233.185 172.707 243.284 199.658 243.284 199.658C243.284 199.658 245.833 212.256 238.024 215.605C236.59 216.205 235.017 216.397 233.481 216.159C231.944 215.921 230.503 215.263 229.317 214.256Z" fill="#AD6359"/>
<path d="M238.575 194.511C241.081 197.947 243.776 195.714 243.776 195.714C243.776 195.714 238.068 201.687 240.27 205.862C242.472 210.038 247.949 206.022 248.354 205.746C248.05 206.065 242.95 211.69 245.587 215.648C248.224 219.606 253.251 214.938 253.57 214.633C253.382 215.01 250.977 220.215 253.671 222.752C258.293 227.101 264.798 214.053 269.753 212.604C269.753 212.604 273.143 220.722 273.288 220.94C273.288 220.94 279.735 208.588 277.432 202.021C277.111 201.06 276.472 200.238 275.622 199.69C274.771 199.142 273.759 198.9 272.752 199.005C272.752 199.005 275.259 195.25 273.274 192.075C272.26 190.452 268.739 190.626 268.739 190.626C269.275 189.754 269.558 188.75 269.558 187.726C269.558 186.703 269.275 185.699 268.739 184.827C267.203 182.652 263.914 183.174 263.914 183.174C263.914 183.174 279.33 169.141 276.171 165.415C270.753 159.007 242.588 189.93 238.908 189.625C237.01 189.451 237.488 193.003 238.575 194.511Z" fill="#AD6359"/>
<path d="M263.32 183.16C263.393 183.16 263.32 183.015 263.32 183.044C255.575 185.202 248.671 189.673 243.53 195.859C243.37 196.048 243.283 197.309 243.53 197.019C248.209 191.698 255.888 186.61 263.32 183.16Z" fill="#263238"/>
<path d="M268.811 190.495C268.898 190.495 268.811 190.336 268.811 190.35C260.301 192.825 252.954 198.259 248.093 205.674C247.934 205.935 248.093 206.341 248.267 206.051C251.73 201.165 262.103 193.583 268.811 190.495Z" fill="#263238"/>
<path d="M253.425 215.257C258.235 208.008 264.871 203.122 272.419 199.034C272.52 199.034 272.419 198.846 272.346 198.875C268.101 199.86 263.567 202.977 260.234 205.688C257.098 208.154 254.661 211.398 253.164 215.097C253.106 215.242 253.309 215.416 253.425 215.257Z" fill="#263238"/>
<path d="M243.631 195.714C243.443 195.946 244.384 195.946 244.211 196.207C242.255 198.889 238.98 203.891 240.82 205.978C242.269 207.646 245.543 206.834 246.616 205.978L249.513 203.949L247.543 206.848C246.662 208.125 245.992 209.534 245.558 211.023C245.323 211.706 245.234 212.43 245.296 213.15C245.359 213.869 245.571 214.567 245.92 215.199C246.249 215.782 246.769 216.233 247.392 216.476C248.015 216.719 248.703 216.739 249.339 216.532C250.759 216.057 252.031 215.223 253.034 214.111L255.931 211.139L254.178 214.865C253.701 215.907 253.351 217.002 253.135 218.127C252.896 219.189 252.972 220.297 253.353 221.317C253.547 221.767 253.863 222.154 254.264 222.436C254.666 222.717 255.138 222.882 255.627 222.911C256.729 222.802 257.778 222.385 258.655 221.708C260.568 220.266 262.365 218.676 264.03 216.953C264.9 216.112 265.769 215.271 266.696 214.474C267.561 213.607 268.604 212.939 269.753 212.517C268.658 213.057 267.675 213.8 266.855 214.706C266.015 215.576 265.218 216.474 264.407 217.388C262.829 219.259 261.077 220.977 259.177 222.52C258.16 223.374 256.916 223.913 255.598 224.071C254.872 224.079 254.158 223.875 253.546 223.483C252.934 223.092 252.449 222.53 252.15 221.867C251.635 220.62 251.504 219.247 251.773 217.924C251.977 216.661 252.352 215.432 252.889 214.271L254.019 215.025C252.854 216.361 251.354 217.362 249.673 217.924C248.723 218.231 247.694 218.185 246.775 217.794C245.894 217.405 245.152 216.758 244.645 215.938C244.201 215.14 243.932 214.257 243.855 213.348C243.777 212.438 243.894 211.522 244.196 210.661C244.689 209.023 245.453 207.479 246.456 206.094L247.326 206.964C245.877 207.935 242.313 209.255 239.705 206.964C236.851 203.499 242.515 196.86 243.631 195.714Z" fill="#263238"/>
<path d="M224.941 215.605L260.582 245.455C260.582 245.455 218.306 292.18 206.889 289.947C195.473 287.714 161.252 267.94 145.069 252.051C128.886 236.162 143.084 232.393 154.703 235.596C166.323 238.8 198.964 249.064 200.616 249.007C203.789 248.876 224.941 215.605 224.941 215.605Z" fill="#2D8A48"/>
<path d="M251.643 249.601C250.339 248.586 249.151 247.339 247.934 246.223C246.717 245.107 245.428 244.005 244.167 242.918C241.724 240.82 239.309 238.709 236.923 236.582C231.997 232.233 227.158 227.884 222.015 223.839C222.015 223.839 221.841 223.839 221.899 223.97C226.386 228.713 231.141 233.195 236.141 237.394C238.618 239.54 241.11 241.656 243.646 243.729C244.921 244.788 246.224 245.832 247.557 246.832C248.89 247.832 250.31 248.731 251.571 249.731C251.614 249.876 251.744 249.688 251.643 249.601Z" fill="#263238"/>
<path opacity="0.1" d="M145.083 252.036C156.92 263.634 178.406 277.378 193.575 284.757L142.302 235.191C136.709 236.901 134.956 242.106 145.083 252.036Z" fill="black"/>
<path d="M182.694 342.63C181.419 344.269 89.6953 350.908 89.1882 350.372C87.7394 348.922 105.125 255.632 122.047 235.727C127.046 229.841 144.141 231.784 146.141 233.248C151.414 237.119 156.282 244.759 160.325 254.689C168.496 274.551 183.81 341.195 182.694 342.63Z" fill="white"/>
<path d="M126.886 232.871C126.886 232.871 138.172 280.016 138.172 292.745C138.172 313.041 136.811 354.518 136.811 354.518H84.5232C84.5232 354.518 95.5051 309.287 96.6497 303.995C97.7943 298.703 107.675 266.824 107.675 266.824C107.675 266.824 117.686 232.871 126.886 232.871Z" fill="#2D8A48"/>
<path d="M146.141 232.871C151.544 244.535 155.968 256.629 159.368 269.027C164.367 287.946 173.509 353.112 173.509 353.112L186.316 343.747C186.316 343.747 168.728 275.696 163.251 261.532C157.775 247.368 150.545 234.872 149.995 234.524C148.831 233.726 147.521 233.164 146.141 232.871Z" fill="#2D8A48"/>
<path d="M144.75 246.122C145.46 254.313 146.315 262.489 147.198 270.666C148.082 278.842 149.096 286.99 150.096 295.152C151.096 303.314 152.153 311.461 153.269 319.609L154.979 331.815C155.602 335.875 156.167 339.948 156.833 344.008C156.5 339.905 156.065 335.817 155.688 331.728L154.385 319.464C153.501 311.302 152.487 303.14 151.487 294.978C150.487 286.816 149.43 278.668 148.314 270.521C147.198 262.373 146.054 254.24 144.75 246.122Z" fill="#263238"/>
<path d="M141.795 271.898C141.825 272.204 141.946 272.494 142.141 272.731C142.336 272.968 142.598 273.142 142.892 273.23C143.186 273.318 143.5 273.317 143.793 273.226C144.087 273.136 144.347 272.96 144.541 272.722C144.734 272.483 144.853 272.192 144.881 271.886C144.909 271.58 144.846 271.273 144.699 271.003C144.552 270.733 144.329 270.513 144.057 270.37C143.785 270.227 143.476 270.169 143.171 270.202C142.764 270.246 142.391 270.448 142.134 270.766C141.876 271.084 141.754 271.491 141.795 271.898Z" fill="#263238"/>
<path d="M144.04 287.613C144.053 287.821 144.107 288.024 144.2 288.21C144.293 288.397 144.422 288.562 144.58 288.698C144.739 288.833 144.922 288.935 145.121 288.998C145.319 289.06 145.528 289.083 145.735 289.063C145.951 289.06 146.163 289.012 146.359 288.922C146.555 288.833 146.73 288.703 146.873 288.543C147.016 288.382 147.124 288.192 147.19 287.987C147.256 287.782 147.278 287.566 147.256 287.352C147.234 287.137 147.167 286.93 147.061 286.743C146.954 286.556 146.809 286.393 146.636 286.265C146.463 286.137 146.266 286.046 146.056 285.999C145.845 285.951 145.628 285.948 145.417 285.989C145.023 286.033 144.662 286.226 144.406 286.528C144.15 286.829 144.019 287.218 144.04 287.613Z" fill="#263238"/>
<path d="M146.329 303.328C146.358 303.628 146.474 303.912 146.663 304.147C146.852 304.381 147.106 304.554 147.393 304.646C147.679 304.737 147.987 304.742 148.276 304.66C148.566 304.578 148.825 304.412 149.021 304.184C149.218 303.956 149.343 303.676 149.381 303.377C149.42 303.078 149.369 302.775 149.237 302.505C149.105 302.234 148.896 302.009 148.636 301.856C148.377 301.704 148.079 301.631 147.778 301.646C147.571 301.657 147.368 301.71 147.182 301.801C146.996 301.892 146.83 302.021 146.695 302.178C146.559 302.335 146.457 302.518 146.394 302.715C146.332 302.913 146.309 303.122 146.329 303.328Z" fill="#263238"/>
<path d="M148.546 319.058C148.576 319.364 148.697 319.653 148.892 319.891C149.088 320.128 149.349 320.301 149.643 320.39C149.937 320.478 150.251 320.477 150.545 320.386C150.838 320.296 151.098 320.12 151.292 319.882C151.486 319.643 151.604 319.352 151.632 319.046C151.66 318.74 151.597 318.433 151.45 318.163C151.304 317.893 151.08 317.672 150.808 317.53C150.536 317.387 150.228 317.329 149.922 317.362C149.72 317.381 149.524 317.441 149.345 317.537C149.166 317.634 149.008 317.764 148.88 317.922C148.752 318.08 148.657 318.262 148.6 318.456C148.542 318.651 148.524 318.856 148.546 319.058Z" fill="#263238"/>
<path d="M150.792 334.773C150.866 335.153 151.08 335.492 151.391 335.722C151.702 335.952 152.088 336.058 152.473 336.018C152.858 335.978 153.214 335.795 153.471 335.506C153.729 335.217 153.868 334.841 153.863 334.454C153.789 334.074 153.575 333.735 153.264 333.505C152.953 333.274 152.567 333.169 152.182 333.209C151.797 333.249 151.441 333.431 151.183 333.721C150.926 334.01 150.786 334.386 150.792 334.773Z" fill="#263238"/>
<path d="M117.304 277.975L108.977 349.018L163.512 355.419L171.84 284.376L117.304 277.975Z" fill="#455A64"/>
<path d="M130.894 283.857L156.741 286.858L157.649 279.024L131.802 276.023L130.894 283.857Z" fill="#A6A6A6"/>
<path d="M137.694 276.696L140.882 277.059L141.302 273.449L149.038 274.348L148.618 277.958L151.806 278.335L152.559 271.738L138.419 270.1L137.694 276.696Z" fill="#A6A6A6"/>
<path d="M114.456 241.076C85.7402 269.085 51.5339 322.581 63.0809 331.409C73.6282 339.47 112.34 344.327 128.668 344.559C133.478 344.631 133.261 307.199 128.132 307.126C121.917 307.025 106.4 305.372 105.806 305.184C104.546 304.763 118.541 263.489 124.177 250.703C131.146 234.857 124.51 231.262 114.456 241.076Z" fill="#AD6359"/>
<path d="M176.754 310.91C177.07 312.031 177.041 313.221 176.672 314.325C176.302 315.429 175.609 316.396 174.682 317.101C176.198 318.375 177.223 320.139 177.58 322.088C178.073 325.553 172.857 327.887 172.857 327.887C174.179 329.545 174.962 331.569 175.103 333.686C175.233 337.049 170.307 340.108 170.307 340.108C170.671 342.282 170.244 344.514 169.104 346.4C165.859 351.329 156.862 351.097 151.139 351.01C145.417 350.923 129.262 345.327 126.075 344.573L126.307 307.808C126.307 307.808 152.081 300.878 158.789 301.936C164.541 302.705 175.392 306.663 176.754 310.91Z" fill="#AD6359"/>
<path d="M174.494 316.521C168.699 314.129 162.527 313.621 156.384 312.679C156.362 312.687 156.343 312.702 156.329 312.721C156.316 312.741 156.308 312.764 156.308 312.788C156.308 312.811 156.316 312.834 156.329 312.854C156.343 312.873 156.362 312.888 156.384 312.896C162.498 313.708 168.366 315.796 174.436 316.796C174.468 316.795 174.499 316.783 174.524 316.762C174.549 316.741 174.566 316.713 174.573 316.681C174.579 316.649 174.575 316.616 174.561 316.587C174.547 316.558 174.523 316.535 174.494 316.521Z" fill="#263238"/>
<path d="M172.828 327.35C171.46 326.93 170.042 326.696 168.612 326.654C167.163 326.509 165.598 326.393 164.092 326.292C161.069 326.108 158.041 325.997 155.008 325.958C154.877 325.958 154.834 326.161 155.008 326.176C158.021 326.364 161.035 326.596 164.034 326.915C165.483 327.075 167.033 327.249 168.54 327.437C169.943 327.702 171.372 327.809 172.799 327.756C172.841 327.744 172.879 327.718 172.907 327.684C172.934 327.649 172.951 327.607 172.954 327.563C172.957 327.519 172.947 327.475 172.924 327.437C172.902 327.399 172.868 327.369 172.828 327.35Z" fill="#263238"/>
<path d="M170.264 339.977C169.021 339.621 167.729 339.474 166.439 339.542L162.295 339.354C159.542 339.209 156.79 339.064 154.037 338.818C153.907 338.818 153.878 339.021 154.037 339.035C156.833 339.296 159.615 339.586 162.411 339.832L166.526 340.151C167.771 340.375 169.047 340.375 170.292 340.151L170.264 339.977Z" fill="#263238"/>
<path d="M147.257 378.381C147.27 378.362 147.277 378.339 147.277 378.316C147.277 378.292 147.27 378.27 147.257 378.25C147.237 378.237 147.215 378.23 147.191 378.23C147.168 378.23 147.145 378.237 147.126 378.25C147.126 378.439 146.981 378.627 146.894 378.815C146.888 378.844 146.892 378.874 146.905 378.9C146.919 378.927 146.94 378.948 146.967 378.96C146.98 378.965 146.994 378.966 147.008 378.965C147.022 378.964 147.036 378.959 147.048 378.953C147.06 378.946 147.071 378.937 147.079 378.925C147.088 378.914 147.094 378.902 147.097 378.888L147.257 378.381Z" fill="#263238"/>
<path d="M127.64 305.126L123.047 349.531C123.047 349.531 63.9648 339.963 59.7632 329.09C54.649 315.81 89.5941 264.403 108.298 245.904C127.002 227.405 131.479 234.886 124.467 252.558C117.455 270.231 106.864 302.647 107.081 303.43C107.299 304.212 127.64 305.126 127.64 305.126Z" fill="#2D8A48"/>
<path d="M114.934 346.052C115.035 344.399 115.383 342.717 115.6 341.079C115.817 339.441 116.006 337.759 116.18 336.092C116.508 332.883 116.856 329.679 117.223 326.48C117.947 319.986 118.831 313.433 119.222 306.967C119.222 306.944 119.213 306.922 119.197 306.905C119.18 306.889 119.158 306.88 119.135 306.88C119.112 306.88 119.09 306.889 119.074 306.905C119.057 306.922 119.048 306.944 119.048 306.967C117.705 313.361 116.738 319.828 116.151 326.335C115.793 329.583 115.479 332.84 115.209 336.107C115.064 337.759 114.948 339.427 114.876 341.094C114.803 342.761 114.876 344.443 114.745 346.081C114.702 346.182 114.919 346.197 114.934 346.052Z" fill="#263238"/>
<path d="M72.7878 309.895C76.4298 308.281 80.188 306.944 84.0306 305.894C83.4076 305.894 82.7991 305.981 82.1761 306.068C80.7273 306.242 79.4379 306.46 78.076 306.75C77.9891 306.75 77.9311 306.619 78.076 306.59C79.4169 306.122 80.8073 305.811 82.2196 305.662C82.915 305.662 83.6684 305.561 84.3059 305.546H85.1751C92.5481 303.585 100.198 302.879 107.805 303.459C107.836 303.459 107.866 303.471 107.887 303.493C107.909 303.514 107.921 303.544 107.921 303.575C107.921 303.605 107.909 303.635 107.887 303.657C107.866 303.678 107.836 303.691 107.805 303.691C95.8908 303.78 84.08 305.918 72.8893 310.011L72.7878 309.895Z" fill="#263238"/>
<path d="M114.195 304.343C112.369 304.343 110.558 304.241 108.733 304.067C108.245 304.032 107.761 303.96 107.284 303.85C107.15 303.82 107.019 303.776 106.893 303.72C106.893 303.72 106.893 303.72 106.734 303.56C106.707 303.48 106.707 303.394 106.734 303.314C106.734 303.212 106.734 303.169 106.734 303.096L106.864 302.4C107.067 301.487 107.313 300.617 107.545 299.733C108.53 296.21 109.689 292.76 110.805 289.28C111.92 285.801 113.166 282.394 114.427 278.973C115.687 275.551 116.977 272.159 118.396 268.824C117.411 272.333 116.325 275.812 115.224 279.277L111.833 289.657L108.327 299.994C108.052 300.864 107.762 301.719 107.516 302.589C107.454 302.793 107.405 303.001 107.371 303.212C107.367 303.256 107.367 303.299 107.371 303.343C107.371 303.343 107.371 303.343 107.371 303.256C107.371 303.169 107.371 303.256 107.371 303.256L107.603 303.357C108.008 303.473 108.472 303.546 108.907 303.633C110.587 303.894 112.398 304.096 114.195 304.343Z" fill="#263238"/>
<path d="M118.643 273.362C118.281 274.285 117.793 275.153 117.194 275.943C116.643 276.753 115.98 277.48 115.223 278.103C115.585 277.18 116.073 276.312 116.672 275.522C117.223 274.712 117.886 273.984 118.643 273.362Z" fill="#263238"/>
<path d="M109.211 346.98C105.516 346.559 101.88 345.82 98.2579 345.051C96.4468 344.617 94.6503 344.196 92.8683 343.689C91.0863 343.181 89.3042 342.659 87.5657 341.993C91.2022 342.717 94.8097 343.573 98.4172 344.341C102.025 345.109 105.632 345.965 109.211 346.98Z" fill="#263238"/>
<path d="M145.344 245.15C140.766 247.803 131.494 241.685 127.756 235.712C127.509 235.306 127.147 218.475 126.944 215.083C126.944 214.387 148.517 219.011 148.517 219.011C147.549 223.32 147.111 227.731 147.213 232.146C147.246 232.635 147.323 233.121 147.445 233.596C147.445 233.596 147.445 233.741 147.445 233.828C148.082 236.379 147.677 243.802 145.344 245.15Z" fill="#AD6359"/>
<path d="M147.488 233.77C146.772 233.911 146.045 233.988 145.315 234.002C134.145 234.422 129.378 220.954 127.756 215.054C131.696 215.416 148.517 218.997 148.517 218.997C147.548 223.315 147.115 227.736 147.228 232.161C147.247 232.65 147.32 233.137 147.445 233.61C147.445 233.61 147.488 233.683 147.488 233.77Z" fill="#263238"/>
<path d="M123.482 188.799C121.091 196.338 124.814 218.214 130.132 223.143C137.825 230.29 150.56 231.117 156.674 221.824C162.585 212.821 157.224 184.392 151.284 179.898C142.519 173.287 127.017 177.68 123.482 188.799Z" fill="#AD6359"/>
<path d="M142.287 202.282C142.287 202.282 142.186 202.369 142.2 202.427C142.49 203.876 142.577 205.63 141.316 206.341C141.316 206.341 141.316 206.428 141.316 206.341C142.939 205.862 142.794 203.63 142.287 202.282Z" fill="#263238"/>
<path d="M140.722 200.962C138.317 201.18 138.926 205.964 141.142 205.761C143.359 205.558 142.736 200.788 140.722 200.962Z" fill="#263238"/>
<path d="M151.168 200.832C151.168 200.832 151.299 200.832 151.299 200.948C151.444 202.398 151.849 204.123 153.255 204.456V204.529C151.589 204.514 151.067 202.267 151.168 200.832Z" fill="#263238"/>
<path d="M152.298 199.121C154.66 198.643 155.442 203.47 153.255 203.847C151.067 204.224 150.314 199.527 152.298 199.121Z" fill="#263238"/>
<path d="M138.998 198.266C139.665 198.164 140.259 197.947 140.911 197.787C141.611 197.707 142.267 197.402 142.78 196.918C142.916 196.738 142.99 196.519 142.99 196.294C142.99 196.069 142.916 195.85 142.78 195.671C142.442 195.37 142.03 195.166 141.587 195.079C141.143 194.992 140.684 195.026 140.259 195.178C139.343 195.353 138.53 195.872 137.984 196.628C137.883 196.798 137.831 196.994 137.833 197.192C137.835 197.391 137.891 197.585 137.995 197.754C138.1 197.923 138.249 198.06 138.425 198.15C138.602 198.24 138.8 198.28 138.998 198.266Z" fill="#263238"/>
<path d="M153.95 196.251C153.289 196.287 152.626 196.287 151.965 196.251C151.274 196.378 150.56 196.271 149.937 195.946C149.759 195.805 149.633 195.609 149.578 195.389C149.523 195.169 149.542 194.937 149.632 194.728C149.872 194.347 150.21 194.037 150.61 193.831C151.01 193.624 151.458 193.529 151.907 193.554C152.825 193.457 153.746 193.711 154.486 194.265C154.674 194.391 154.817 194.574 154.896 194.786C154.975 194.999 154.986 195.23 154.927 195.449C154.868 195.668 154.742 195.863 154.567 196.007C154.392 196.15 154.176 196.236 153.95 196.251Z" fill="#263238"/>
<path d="M143.316 215.909C143.721 216.213 144.127 216.648 144.678 216.619C145.223 216.54 145.747 216.348 146.213 216.054C146.213 216.054 146.315 216.054 146.286 216.054C146.114 216.372 145.859 216.638 145.547 216.822C145.236 217.006 144.88 217.101 144.518 217.097C144.205 217.061 143.91 216.93 143.673 216.724C143.435 216.517 143.265 216.243 143.185 215.938C143.142 215.909 143.258 215.866 143.316 215.909Z" fill="#263238"/>
<path d="M144.315 211.27C144.765 211.81 145.321 212.252 145.95 212.566C146.578 212.88 147.265 213.061 147.966 213.097C148.579 213.135 149.193 213.087 149.792 212.952C149.911 212.936 150.028 212.907 150.14 212.865L150.458 212.778C150.536 212.752 150.602 212.701 150.647 212.632C150.692 212.564 150.712 212.482 150.705 212.401C150.712 212.348 150.712 212.294 150.705 212.241V212.111C150.603 210.965 150.27 209.211 150.27 209.211C150.719 209.371 152.965 210.052 152.849 209.458C152.071 204.328 150.775 199.291 148.981 194.424C148.966 194.394 148.941 194.369 148.911 194.355C148.88 194.341 148.846 194.338 148.813 194.346C148.78 194.355 148.752 194.375 148.732 194.402C148.712 194.429 148.703 194.463 148.705 194.496C149.401 199.237 150.922 203.833 151.69 208.588C150.893 208.331 150.064 208.189 149.227 208.167C149.068 208.167 149.922 211.487 149.922 212.009C149.001 212.222 148.047 212.247 147.116 212.082C146.185 211.918 145.297 211.568 144.504 211.052C144.315 211.052 144.214 211.168 144.315 211.27Z" fill="#263238"/>
<path d="M149.039 212.647C148.472 213.514 147.694 214.222 146.778 214.706C146.267 214.941 145.698 215.021 145.141 214.938C143.924 214.72 143.808 213.633 143.953 212.676C144.035 212.178 144.176 211.691 144.373 211.226C145.739 212.182 147.373 212.679 149.039 212.647Z" fill="#263238"/>
<path d="M146.778 214.706C146.267 214.941 145.698 215.021 145.141 214.938C143.924 214.72 143.808 213.633 143.953 212.676C144.584 212.646 145.207 212.829 145.72 213.198C146.233 213.567 146.606 214.098 146.778 214.706Z" fill="#FF99BA"/>
<path d="M124.467 209.661C128.987 208.921 128.625 205.616 129.002 201.47C129.378 197.323 129.175 188.785 133.899 185.827C138.622 182.87 142.49 186.392 146.126 185.827C148.532 185.45 148.807 182.928 150.763 182.58C152.719 182.232 155.66 187.625 155.66 187.625C154.37 183.928 152.834 179.579 151.313 178.39C142.62 171.765 124.032 177.68 120.483 188.814C119.106 193.076 122.728 201.89 124.467 209.661Z" fill="#263238"/>
<path d="M128.263 207.008C128.263 207.008 123.279 199.991 120.091 201.774C116.904 203.557 120.685 213.763 124.438 215.126C124.909 215.336 125.418 215.449 125.934 215.457C126.45 215.466 126.962 215.369 127.44 215.174C127.918 214.979 128.351 214.69 128.714 214.323C129.077 213.955 129.362 213.519 129.552 213.039L128.263 207.008Z" fill="#AD6359"/>
<path d="M121.25 204.674C121.25 204.674 121.25 204.674 121.25 204.775C123.902 205.819 125.307 208.254 126.292 210.777C126.139 210.515 125.931 210.289 125.682 210.115C125.433 209.941 125.149 209.823 124.851 209.769C124.552 209.716 124.245 209.727 123.951 209.804C123.657 209.88 123.383 210.019 123.148 210.212C123.148 210.212 123.148 210.371 123.148 210.357C123.61 210.204 124.107 210.199 124.572 210.342C125.036 210.485 125.445 210.769 125.742 211.154C126.236 211.802 126.659 212.502 127.002 213.242C127.118 213.473 127.553 213.343 127.451 213.068C127.495 209.661 124.858 204.978 121.25 204.674Z" fill="#263238"/>
<path d="M147.256 231.624L143.432 243.99L127.321 230.087L123.51 235.292C123.51 235.292 140.041 258.14 140.041 257.038L144.113 246.324L151.82 252.906L149.748 234.944L147.256 231.624Z" fill="white"/>
<path d="M151.313 243.961C150.878 241.062 150.516 238.018 149.937 235.089C149.937 234.988 149.748 234.959 149.734 235.089C149.372 237.989 151.183 249.311 151.328 252.037C151.009 251.747 144.214 246.238 144.084 246.368C143.156 248.093 140.157 255.893 139.969 256.603C137.347 252.979 127.393 239.815 124.365 236.423C124.278 236.336 124.133 236.423 124.206 236.539C126.567 240.41 139.781 258.154 139.954 258.082C141.566 254.38 142.983 250.595 144.199 246.745C145.373 247.977 152.284 254.211 152.269 253.776C152.127 250.49 151.807 247.214 151.313 243.961Z" fill="#263238"/>
</svg>
