<svg width="205" height="67" viewBox="0 0 205 67" fill="none" xmlns="http://www.w3.org/2000/svg">
<g opacity="0.5">
<path d="M11.5063 21.6776C5.72532 21.6776 0.998535 16.9143 0.998535 11.0888C0.998535 5.26324 5.69132 0.5 11.5063 0.5C17.2872 0.5 22.014 5.22897 22.014 11.0888C22.014 16.9486 17.2872 21.6776 11.5063 21.6776ZM11.5063 5.91433C8.68381 5.91433 6.37143 8.24455 6.37143 11.0888C6.37143 13.933 8.68381 16.2632 11.5063 16.2632C14.3288 16.2632 16.6411 13.933 16.6411 11.0888C16.6411 8.24455 14.3288 5.91433 11.5063 5.91433Z" fill="#EA5034"/>
<path d="M31.8415 49.9829C32.0796 50.1199 32.2156 50.1199 33.0997 50.1199H34.902V55.7399H19.8035V50.1199H21.8779C22.9321 50.1199 23.4421 49.6745 23.4421 48.6122V32.0265C23.4421 31.067 23.1361 30.69 22.388 30.69H19.7695V25.0701H31.5355V48.4065C31.5355 49.6059 31.5695 49.9143 31.8415 49.9829ZM71.4241 48.9206V36.8925C71.4241 32.986 71.1861 31.581 70.1659 29.7648C68.1596 26.0981 64.521 24.0763 59.8962 24.0763C56.0196 24.0763 53.5031 25.2072 50.3406 28.3598V24.9673H39.3228V30.5872H41.5331C42.5193 30.5872 42.9274 31.0327 42.9274 32.3692V48.338C42.9274 49.5374 42.4173 50.1542 41.5331 50.1542H39.3228V55.7741H54.2173V50.1542H51.6668C50.9187 50.1542 50.7147 49.7773 50.7147 48.2695V38.5717C50.7147 33.9112 53.2651 30.9299 57.4138 30.9299C61.2224 30.9299 63.5348 33.4657 63.5348 37.5436V47.5156C63.5348 49.6059 63.2968 50.1542 62.4806 50.1542H60.1002V55.7741H74.9267V50.1542H72.6823C71.8662 50.1199 71.4241 49.6745 71.4241 48.9206ZM155.078 25.0701H165.96V30.8614H163.817C162.695 30.8614 162.457 31.2383 162.457 32.6776V51.9704C162.457 58.2072 161.947 60.0919 159.635 62.3536C156.676 65.1293 153.004 66.5 148.243 66.5C143.38 66.5 139.061 65.2321 136.851 63.2103C135.287 61.771 134.335 59.9891 133.654 57.1449H141.714C142.53 59.3037 143.822 59.9891 147.019 59.9891C151.984 59.9891 154.534 57.9673 154.534 54.0607V49.6402C150.793 52.9299 148.855 53.7523 145.08 53.7523C137.395 53.7523 131.954 47.6869 131.954 39.1199C131.954 30.2446 137.395 24.1791 145.42 24.1791C149.433 24.1791 151.371 25.1386 155.044 28.6682V25.0701H155.078ZM147.325 47.5156C151.882 47.5156 154.772 44.5 154.772 39.7025C154.772 34.1511 151.779 30.6215 147.019 30.6215C142.564 30.6215 140.082 33.8427 140.082 39.4626C140.048 44.6371 142.7 47.5156 147.325 47.5156ZM184.663 24.1449C195.103 24.1449 201.734 30.5187 201.734 40.5249C201.734 50.3598 195.273 56.8022 185.411 56.8022C175.141 56.8022 168.578 50.4283 168.578 40.5249C168.578 30.69 175.039 24.1449 184.663 24.1449ZM185.037 50.2913C190.172 50.2913 193.538 46.3847 193.538 40.5249C193.538 34.6651 190.172 30.69 185.105 30.69C180.174 30.69 176.672 34.528 176.672 39.9424C176.638 46.3847 179.834 50.2913 185.037 50.2913ZM125.493 48.4065C125.493 49.5717 126.037 50.1542 127.057 50.1542H128.86V55.7056H99.8188L99.6828 52.6215C96.4863 55.7742 94.616 56.6651 91.1814 56.6651C82.918 56.6651 77.2391 50.1199 77.2391 40.5935C77.2391 30.7586 82.816 24.0078 90.8754 24.0078C94.0719 24.0078 96.0102 24.8988 99.7508 28.0514V20.1698C99.5808 19.553 99.4448 19.4159 98.4246 19.4159H96.2822V13.7274H107.81V48.9206C107.81 49.9829 108.014 50.1885 109.068 50.1885H115.904C116.958 50.1885 117.468 49.6745 117.468 48.6122V32.0265C117.468 31.067 117.162 30.69 116.414 30.69H113.795V25.0701H125.561V48.4065H125.493ZM92.4056 50.2913C97.0984 50.2913 100.159 46.4533 100.159 40.5935C100.159 34.8365 96.8263 30.5187 92.4736 30.5187C88.2909 30.5187 85.5365 34.4252 85.5365 40.2851C85.5365 46.2134 88.3249 50.2913 92.4056 50.2913ZM198.435 26.7492H199.149V23.6651H200.34V23.0483H197.279V23.6651H198.469V26.7492H198.435ZM204.76 23.0483H203.706L203.06 24.8645C202.992 25.1386 202.89 25.447 202.788 25.7897C202.686 25.4128 202.618 25.1386 202.55 24.8645L201.904 23.0483H200.816L200.544 26.7492H201.258L201.394 24.5903C201.394 24.2477 201.428 23.905 201.428 23.5623H201.462C201.53 23.905 201.666 24.3162 201.734 24.6246L202.38 26.715H203.128L203.774 24.6589C203.876 24.3162 203.978 23.8707 204.08 23.5623H204.114C204.114 23.9735 204.114 24.3162 204.148 24.5903L204.284 26.7492H204.998L204.76 23.0483Z" fill="#2D8A48"/>
</g>
</svg>
