<svg width="335" height="113" viewBox="0 0 335 113" fill="none" xmlns="http://www.w3.org/2000/svg">
<g filter="url(#filter0_d_132_27467)">
<path d="M22.9971 60.545C22.9971 57.1079 23.6693 53.7043 24.9755 50.5289C26.2817 47.3533 28.1961 44.468 30.6096 42.0375C33.0231 39.6071 35.8882 37.6791 39.0415 36.3638C42.1949 35.0485 45.5746 34.3715 48.9878 34.3715V60.545H22.9971Z" fill="#174524"/>
<path d="M22.9971 60.545C22.9971 63.9823 23.6693 67.3858 24.9755 70.5614C26.2817 73.7369 28.1961 76.6222 30.6096 79.0527C33.0231 81.4831 35.8882 83.4111 39.0415 84.7264C42.1949 86.0418 45.5746 86.7187 48.9878 86.7187V60.545H22.9971Z" fill="#2D8A48"/>
<path d="M74.9781 60.545C74.9781 63.9823 74.3064 67.3858 73.0003 70.5614C71.6942 73.7369 69.7798 76.6222 67.3659 79.0527C64.9525 81.4831 62.0873 83.4111 58.9338 84.7264C55.7807 86.0418 52.4009 86.7187 48.9878 86.7187V60.545H74.9781Z" fill="#44CF6C"/>
<path d="M91.0033 37.9335C91.0033 48.787 82.2659 57.5857 71.4883 57.5857H51.9736V37.9335C51.9736 27.0799 60.7108 18.2812 71.4883 18.2812C82.2659 18.2812 91.0033 27.0799 91.0033 37.9335Z" fill="#D19C1D"/>
<path d="M96.324 80V60.4H104.808C106.563 60.4 108.075 60.6893 109.344 61.268C110.613 61.828 111.593 62.64 112.284 63.704C112.975 64.768 113.32 66.0373 113.32 67.512C113.32 68.968 112.975 70.228 112.284 71.292C111.593 72.356 110.613 73.1773 109.344 73.756C108.075 74.316 106.563 74.596 104.808 74.596H98.844L100.86 72.552V80H96.324ZM100.86 73.056L98.844 70.9H104.556C105.956 70.9 107.001 70.6013 107.692 70.004C108.383 69.4067 108.728 68.576 108.728 67.512C108.728 66.4293 108.383 65.5893 107.692 64.992C107.001 64.3947 105.956 64.096 104.556 64.096H98.844L100.86 61.94V73.056ZM116.838 80V60.4H125.322C127.077 60.4 128.589 60.6893 129.858 61.268C131.128 61.828 132.108 62.64 132.798 63.704C133.489 64.768 133.834 66.0373 133.834 67.512C133.834 68.968 133.489 70.228 132.798 71.292C132.108 72.3373 131.128 73.14 129.858 73.7C128.589 74.26 127.077 74.54 125.322 74.54H119.358L121.374 72.552V80H116.838ZM129.298 80L124.398 72.888H129.242L134.198 80H129.298ZM121.374 73.056L119.358 70.928H125.07C126.47 70.928 127.516 70.6293 128.206 70.032C128.897 69.416 129.242 68.576 129.242 67.512C129.242 66.4293 128.897 65.5893 128.206 64.992C127.516 64.3947 126.47 64.096 125.07 64.096H119.358L121.374 61.94V73.056ZM147.228 80.336C145.679 80.336 144.242 80.084 142.916 79.58C141.61 79.076 140.471 78.3667 139.5 77.452C138.548 76.5373 137.802 75.464 137.26 74.232C136.738 73 136.476 71.656 136.476 70.2C136.476 68.744 136.738 67.4 137.26 66.168C137.802 64.936 138.558 63.8627 139.528 62.948C140.499 62.0333 141.638 61.324 142.944 60.82C144.251 60.316 145.67 60.064 147.2 60.064C148.75 60.064 150.168 60.316 151.456 60.82C152.763 61.324 153.892 62.0333 154.844 62.948C155.815 63.8627 156.571 64.936 157.112 66.168C157.654 67.3813 157.924 68.7253 157.924 70.2C157.924 71.656 157.654 73.0093 157.112 74.26C156.571 75.492 155.815 76.5653 154.844 77.48C153.892 78.376 152.763 79.076 151.456 79.58C150.168 80.084 148.759 80.336 147.228 80.336ZM147.2 76.472C148.078 76.472 148.88 76.3227 149.608 76.024C150.355 75.7253 151.008 75.296 151.568 74.736C152.128 74.176 152.558 73.5133 152.856 72.748C153.174 71.9827 153.332 71.1333 153.332 70.2C153.332 69.2667 153.174 68.4173 152.856 67.652C152.558 66.8867 152.128 66.224 151.568 65.664C151.027 65.104 150.383 64.6747 149.636 64.376C148.89 64.0773 148.078 63.928 147.2 63.928C146.323 63.928 145.511 64.0773 144.764 64.376C144.036 64.6747 143.392 65.104 142.832 65.664C142.272 66.224 141.834 66.8867 141.516 67.652C141.218 68.4173 141.068 69.2667 141.068 70.2C141.068 71.1147 141.218 71.964 141.516 72.748C141.834 73.5133 142.263 74.176 142.804 74.736C143.364 75.296 144.018 75.7253 144.764 76.024C145.511 76.3227 146.323 76.472 147.2 76.472ZM164.815 80.336C163.49 80.336 162.267 80.0933 161.147 79.608C160.046 79.104 159.14 78.3947 158.431 77.48L160.951 74.456C161.492 75.1653 162.062 75.7067 162.659 76.08C163.256 76.4347 163.9 76.612 164.591 76.612C166.439 76.612 167.363 75.5293 167.363 73.364V64.04H160.475V60.4H171.871V73.112C171.871 75.5387 171.274 77.3493 170.079 78.544C168.884 79.7387 167.13 80.336 164.815 80.336ZM180.804 68.296H190.24V71.824H180.804V68.296ZM181.14 76.36H191.808V80H176.632V60.4H191.444V64.04H181.14V76.36ZM205.077 80.336C203.565 80.336 202.155 80.0933 200.849 79.608C199.561 79.104 198.441 78.3947 197.489 77.48C196.537 76.5653 195.79 75.492 195.249 74.26C194.726 73.028 194.465 71.6747 194.465 70.2C194.465 68.7253 194.726 67.372 195.249 66.14C195.79 64.908 196.537 63.8347 197.489 62.92C198.459 62.0053 199.589 61.3053 200.877 60.82C202.165 60.316 203.574 60.064 205.105 60.064C206.803 60.064 208.334 60.3627 209.697 60.96C211.078 61.5387 212.235 62.3973 213.169 63.536L210.257 66.224C209.585 65.4587 208.838 64.8893 208.017 64.516C207.195 64.124 206.299 63.928 205.329 63.928C204.414 63.928 203.574 64.0773 202.809 64.376C202.043 64.6747 201.381 65.104 200.821 65.664C200.261 66.224 199.822 66.8867 199.505 67.652C199.206 68.4173 199.057 69.2667 199.057 70.2C199.057 71.1333 199.206 71.9827 199.505 72.748C199.822 73.5133 200.261 74.176 200.821 74.736C201.381 75.296 202.043 75.7253 202.809 76.024C203.574 76.3227 204.414 76.472 205.329 76.472C206.299 76.472 207.195 76.2853 208.017 75.912C208.838 75.52 209.585 74.932 210.257 74.148L213.169 76.836C212.235 77.9747 211.078 78.8427 209.697 79.44C208.334 80.0373 206.794 80.336 205.077 80.336ZM220.38 80V64.096H214.108V60.4H231.188V64.096H224.916V80H220.38Z" fill="#2D8A48"/>
<path d="M238.613 80L232.201 60.4H236.905L242.477 77.76H240.125L245.949 60.4H250.149L255.749 77.76H253.481L259.193 60.4H263.533L257.121 80H252.249L247.293 64.768H248.581L243.485 80H238.613ZM279.785 60.4H284.321V80H279.785V60.4ZM270.881 80H266.345V60.4H270.881V80ZM280.121 71.964H270.545V68.128H280.121V71.964ZM289.239 80V60.4H293.775V80H289.239ZM297.446 80V77.06L309.57 62.444L310.13 64.096H297.67V60.4H314.162V63.34L302.066 77.956L301.506 76.304H314.582V80H297.446Z" fill="#D19C1D"/>
</g>
<defs>
<filter id="filter0_d_132_27467" x="-5" y="-5" width="346" height="123" filterUnits="userSpaceOnUse" color-interpolation-filters="sRGB">
<feFlood flood-opacity="0" result="BackgroundImageFix"/>
<feColorMatrix in="SourceAlpha" type="matrix" values="0 0 0 0 0 0 0 0 0 0 0 0 0 0 0 0 0 0 127 0" result="hardAlpha"/>
<feOffset dy="4"/>
<feGaussianBlur stdDeviation="10"/>
<feComposite in2="hardAlpha" operator="out"/>
<feColorMatrix type="matrix" values="0 0 0 0 0.176471 0 0 0 0 0.541176 0 0 0 0 0.282353 0 0 0 0.15 0"/>
<feBlend mode="normal" in2="BackgroundImageFix" result="effect1_dropShadow_132_27467"/>
<feBlend mode="normal" in="SourceGraphic" in2="effect1_dropShadow_132_27467" result="shape"/>
</filter>
</defs>
</svg>
