<svg width="299" height="85" viewBox="0 0 299 85" fill="none" xmlns="http://www.w3.org/2000/svg">
<g opacity="0.5">
<path d="M120.31 32.9982H129.151V60.6407H120.31V32.9982Z" fill="#2D8A48"/>
<path d="M130.997 32.9982H139.513V36.7774H139.675C141.736 33.8079 144.394 32.1885 148.245 32.1885C154.32 32.1885 157.9 36.5075 157.9 42.6623V60.6407H149.059V44.4441C149.059 41.5285 147.594 39.5307 144.72 39.5307C141.791 39.5307 139.838 41.9604 139.838 45.3616V60.6407H130.997V32.9982Z" fill="#2D8A48"/>
<path d="M130.034 25.6027C130.034 22.6871 127.659 20.3239 124.73 20.3239C121.801 20.3239 119.427 22.6871 119.427 25.6027C119.427 28.5181 121.801 30.8813 124.73 30.8813C127.659 30.8813 130.034 28.5181 130.034 25.6027Z" fill="#2D8A48"/>
<path d="M220.08 32.5989C219.828 32.5763 219.539 32.5663 219.2 32.5663C215.837 32.5663 213.559 34.0239 211.607 37.3173H211.444V32.9982H202.983V60.6404H211.824V48.2231C211.824 42.4695 215.025 39.8034 220.08 40.2686V32.5989Z" fill="#2D8A48"/>
<path d="M263.466 43.2019C259.941 42.5543 256.795 42.2843 256.795 40.3408C256.795 38.613 258.477 37.8032 260.646 37.8032C263.086 37.8032 264.768 38.559 265.093 41.0427H273.23C272.796 35.5898 268.565 32.1883 260.701 32.1883C254.137 32.1883 248.713 35.2117 248.713 41.0427C248.713 47.521 253.866 48.8169 258.693 49.6269C262.382 50.2748 265.744 50.5447 265.744 53.0281C265.744 54.8098 264.063 55.7816 261.405 55.7816C258.739 55.7816 256.975 54.6587 256.435 52.3804H248.01C248.63 58.0629 253.641 61.5044 261.46 61.5044C268.728 61.5044 274.097 58.3731 274.097 52.3265C274.097 45.2536 268.348 44.0119 263.466 43.2019Z" fill="#2D8A48"/>
<path d="M233.795 38.451C236.669 38.451 238.73 40.5566 239.056 43.8502H228.1C228.696 40.5566 230.432 38.451 233.795 38.451ZM234.283 55.1335C230.649 55.1335 228.588 52.8122 228.045 49.0868H248.005C248.06 43.4722 246.433 38.6669 243.124 35.6438C240.737 33.4842 237.591 32.1883 233.632 32.1883C225.17 32.1883 219.367 38.5049 219.367 46.7655C219.367 55.1335 225.008 61.4506 234.174 61.4506C237.7 61.4506 240.52 60.5327 242.853 58.913C245.293 57.2393 246.921 54.8638 247.517 52.3805H238.893C238.133 54.108 236.615 55.1335 234.283 55.1335Z" fill="#2D8A48"/>
<path d="M289.668 54.1223C289.259 54.1384 288.709 54.1621 288.203 54.1621C286.305 54.1621 285.112 53.622 285.112 51.4625V38.505H289.668V32.9982H285.112V24.2519H276.487V32.9982H273.774V38.505H276.487V53.3521C276.487 59.2912 280.176 60.9645 285.329 60.9645C287.295 60.9645 288.781 60.818 289.668 60.6456V54.1223Z" fill="#2D8A48"/>
<path d="M173.688 54.1348C173.336 54.1485 172.928 54.1621 172.548 54.1621C170.65 54.1621 169.457 53.622 169.457 51.4625V38.505H173.688V32.9982H169.457V24.2519H160.833V32.9982H157.957V38.505H160.833V53.3521C160.833 59.2911 164.521 60.9645 169.673 60.9645C171.417 60.9645 172.782 60.849 173.688 60.7028V54.1348Z" fill="#2D8A48"/>
<path d="M192.946 43.8501C192.62 40.5567 190.559 38.4509 187.684 38.4509C184.322 38.4509 182.586 40.5567 181.989 43.8501H192.946ZM173.257 46.7654C173.257 38.5051 179.06 32.1885 187.522 32.1885C191.481 32.1885 194.627 33.4841 197.014 35.6437C200.322 38.6671 201.949 43.4721 201.895 49.087H181.935C182.477 52.8121 184.538 55.1337 188.173 55.1337C190.505 55.1337 192.024 54.108 192.783 52.3804H201.407C200.81 54.8637 199.183 57.2393 196.742 58.9132C194.41 60.5326 191.59 61.4505 188.064 61.4505C178.898 61.4505 173.257 55.1337 173.257 46.7654Z" fill="#2D8A48"/>
<path d="M104.956 40.1789C108.427 40.1789 110.38 38.1272 110.38 35.0495C110.38 31.9724 108.373 30.0828 104.956 30.0828H98.1755V40.1789H104.956ZM89.2249 22.0384H104.578C109.296 22.0384 112.768 23.334 115.154 25.6017C117.649 27.923 119.06 31.2166 119.06 35.1037C119.06 42.5002 113.907 47.7373 105.933 47.7373H98.1755V60.6406H89.2249V22.0384Z" fill="#2D8A48"/>
<path d="M77.0884 42.5C77.0884 60.8499 62.1438 75.7256 43.7089 75.7256C25.274 75.7256 10.3293 60.8499 10.3293 42.5C10.3293 24.1499 25.274 9.27446 43.7089 9.27446C62.1438 9.27446 77.0884 24.1499 77.0884 42.5Z" fill="white"/>
<path d="M43.7086 9.27422C25.2737 9.27422 10.3291 24.1499 10.3291 42.4998C10.3291 56.5758 19.1274 68.6089 31.5443 73.4501C31.2526 70.8213 30.9888 66.7784 31.66 63.9085C32.2666 61.3154 35.5742 47.3933 35.5742 47.3933C35.5742 47.3933 34.5757 45.4029 34.5757 42.4603C34.5757 37.8403 37.266 34.3911 40.6156 34.3911C43.4635 34.3911 44.839 36.5193 44.839 39.0713C44.839 41.9221 43.0155 46.1843 42.0746 50.134C41.2882 53.441 43.7406 56.1379 47.0175 56.1379C52.9502 56.1379 57.5106 49.9112 57.5106 40.9231C57.5106 32.9678 51.7679 27.4057 43.5677 27.4057C34.0701 27.4057 28.4953 34.4965 28.4953 41.8246C28.4953 44.6803 29.6005 47.7424 30.9795 49.4071C31.2523 49.7361 31.2923 50.0242 31.211 50.3601C30.9576 51.4095 30.3945 53.6662 30.284 54.1281C30.1384 54.7363 29.8002 54.8654 29.1676 54.5723C24.9987 52.6408 22.3922 46.5737 22.3922 41.7007C22.3922 31.2198 30.0426 21.5944 44.4474 21.5944C56.0268 21.5944 65.0253 29.8076 65.0253 40.7839C65.0253 52.2347 57.7719 61.4502 47.7043 61.4502C44.3218 61.4502 41.1421 59.7011 40.0536 57.635C40.0536 57.635 38.3799 63.9788 37.9741 65.5334C37.2205 68.4193 35.1862 72.0368 33.8255 74.2437C36.9486 75.2062 40.2676 75.7253 43.7086 75.7253C62.1438 75.7253 77.0884 60.8497 77.0884 42.4998C77.0884 24.1499 62.1438 9.27422 43.7086 9.27422Z" fill="#2D8A48"/>
</g>
</svg>
