<svg width="215" height="85" viewBox="0 0 215 85" fill="none" xmlns="http://www.w3.org/2000/svg">
<g opacity="0.5">
<path fill-rule="evenodd" clip-rule="evenodd" d="M6.72949 76.2039H18.0469V62.7216H28.4253C32.0179 62.7216 35.5754 61.9993 38.8945 60.5959C42.2137 59.1924 45.2296 57.1354 47.7699 54.5422C50.3103 51.949 52.3255 48.8705 53.7003 45.4823C55.0751 42.0941 55.7828 38.4627 55.7828 34.7954C55.7828 31.1281 55.0751 27.4966 53.7003 24.1085C52.3255 20.7203 50.3103 17.6417 47.7699 15.0486C45.2296 12.4554 42.2137 10.3983 38.8945 8.99491C35.5754 7.59149 32.0179 6.86916 28.4253 6.86916H6.72949V76.2039ZM18.0469 18.4218H28.4253C32.6785 18.4218 36.7576 20.1466 39.7652 23.2166C42.7727 26.2867 44.4623 30.4506 44.4623 34.7923C44.4623 39.134 42.7727 43.2979 39.7652 46.3679C36.7576 49.438 32.6785 51.1627 28.4253 51.1627H18.0499V18.4218H18.0469Z" fill="#2D8A48"/>
<path d="M143.648 60.7983C142.036 63.1613 139.725 64.9354 137.054 65.8606C134.382 66.7858 131.491 66.8136 128.803 65.9399C126.115 65.0662 123.771 63.3369 122.116 61.0053C120.46 58.6736 119.58 55.8621 119.603 52.9826C119.626 50.103 120.552 47.3067 122.244 45.0031C123.937 42.6995 126.308 41.0096 129.01 40.1811C131.711 39.3525 134.602 39.4287 137.258 40.3985C139.914 41.3684 142.197 43.1809 143.771 45.5706L153.531 39.6881C150.689 35.1112 146.469 31.599 141.505 29.679C136.541 27.759 131.1 27.5348 126.001 29.0401C120.901 30.5454 116.417 33.6989 113.223 38.0271C110.029 42.3553 108.297 47.6244 108.286 53.0434C108.276 58.4623 109.988 63.7384 113.165 68.0794C116.343 72.4204 120.814 75.592 125.908 77.1178C131.001 78.6436 136.443 78.4413 141.414 76.5414C146.386 74.6414 150.619 71.1462 153.479 66.5808L143.651 60.7983H143.648ZM170.541 6.86916H159.217V76.2039H170.535V53.0923C170.535 49.5166 171.926 46.0873 174.403 43.5589C176.88 41.0305 180.24 39.61 183.742 39.61C187.245 39.61 190.605 41.0305 193.082 43.5589C195.559 46.0873 196.95 49.5166 196.95 53.0923V76.2039H208.271V50.8442C208.269 46.3837 206.985 42.0217 204.578 38.2987C202.172 34.5757 198.748 31.6554 194.731 29.8997C190.714 28.144 186.28 27.63 181.98 28.4214C177.68 29.2128 173.701 31.2748 170.538 34.352V6.86916H170.541ZM91.3007 6.86916H79.9803V60.7951C79.9798 64.1232 80.918 67.3811 82.6828 70.1794C84.4476 72.9777 86.9644 75.1983 89.9324 76.5756C92.9004 77.953 96.1941 78.429 99.42 77.9467C102.646 77.4644 105.667 76.0442 108.124 73.8559L102.655 64.3827C102.125 65.0657 101.451 65.6175 100.683 65.9965C99.9151 66.3756 99.0728 66.5722 98.2196 66.5715H96.9594C95.4589 66.5706 94.02 65.9618 92.959 64.8787C91.898 63.7956 91.3015 62.3269 91.3007 60.7951V41.5365H102.618V29.9807H91.3007V6.86916ZM66.7817 6.86916C65.1138 6.86916 63.5142 7.5455 62.3349 8.74939C61.1555 9.95329 60.4929 11.5861 60.4929 13.2887C60.4929 14.9913 61.1555 16.6241 62.3349 17.828C63.5142 19.0319 65.1138 19.7082 66.7817 19.7082C68.4496 19.7082 70.0492 19.0319 71.2286 17.828C72.408 16.6241 73.0705 14.9913 73.0705 13.2887C73.0705 11.5861 72.408 9.95329 71.2286 8.74939C70.0492 7.5455 68.4496 6.86916 66.7817 6.86916V6.86916ZM72.4404 76.2039V29.9807H61.123V76.2039H72.4404Z" fill="#2D8A48"/>
</g>
</svg>
