<svg width="184" height="85" viewBox="0 0 184 85" fill="none" xmlns="http://www.w3.org/2000/svg">
<g opacity="0.5">
<path fill-rule="evenodd" clip-rule="evenodd" d="M176.701 43.6746C176.701 31.6471 170.9 22.1566 159.813 22.1566C148.68 22.1566 141.944 31.6471 141.944 43.5806C141.944 57.7223 149.896 64.8636 161.31 64.8636C166.877 64.8636 171.087 63.5951 174.268 61.8098V52.4133C171.087 54.0107 167.438 54.9973 162.807 54.9973C158.27 54.9973 154.247 53.3999 153.732 47.856H176.607C176.607 47.2452 176.701 44.8021 176.701 43.6746ZM153.592 39.2112C153.592 33.9022 156.82 31.6941 159.767 31.6941C162.62 31.6941 165.661 33.9022 165.661 39.2112H153.592Z" fill="#2D8A48"/>
<path fill-rule="evenodd" clip-rule="evenodd" d="M123.887 22.1566C119.303 22.1566 116.356 24.3178 114.718 25.8213L114.11 22.9083H103.819V77.6898L115.514 75.1997L115.56 61.9037C117.244 63.1253 119.724 64.8636 123.84 64.8636C132.214 64.8636 139.839 58.0982 139.839 43.2047C139.792 29.5798 132.073 22.1566 123.887 22.1566ZM121.08 54.5275C118.32 54.5275 116.683 53.5409 115.56 52.3193L115.514 34.8889C116.73 33.5264 118.414 32.5867 121.08 32.5867C125.337 32.5867 128.284 37.3789 128.284 43.5336C128.284 49.8293 125.384 54.5275 121.08 54.5275Z" fill="#2D8A48"/>
<path fill-rule="evenodd" clip-rule="evenodd" d="M87.7271 19.3847L99.4686 16.8476V7.3102L87.7271 9.80026V19.3847Z" fill="#2D8A48"/>
<path d="M99.4686 22.9553H87.7271V64.0649H99.4686V22.9553Z" fill="#2D8A48"/>
<path fill-rule="evenodd" clip-rule="evenodd" d="M75.1433 26.432L74.3948 22.9553H64.2905V64.0649H75.9853V36.2044C78.7453 32.5867 83.4232 33.2445 84.8734 33.7613V22.9553C83.3764 22.3915 77.9033 21.3579 75.1433 26.432Z" fill="#2D8A48"/>
<path fill-rule="evenodd" clip-rule="evenodd" d="M51.7539 12.7602L40.3397 15.2032L40.293 52.8361C40.293 59.7895 45.4855 64.9106 52.4088 64.9106C56.2447 64.9106 59.0514 64.2059 60.5951 63.3602V53.8228C59.0982 54.4335 51.7071 56.5947 51.7071 49.6413V32.9626H60.5951V22.9553H51.7071L51.7539 12.7602Z" fill="#2D8A48"/>
<path fill-rule="evenodd" clip-rule="evenodd" d="M20.131 34.8889C20.131 33.0565 21.628 32.3518 24.1072 32.3518C27.6625 32.3518 32.1533 33.4324 35.7085 35.3587V24.3178C31.8258 22.7674 27.9899 22.1566 24.1072 22.1566C14.6111 22.1566 8.2959 27.1368 8.2959 35.4526C8.2959 48.4198 26.072 46.3526 26.072 51.9435C26.072 54.1046 24.2008 54.8094 21.5812 54.8094C17.6985 54.8094 12.7399 53.212 8.81047 51.0508V62.2326C13.1609 64.1119 17.5582 64.9106 21.5812 64.9106C31.3112 64.9106 38.0007 60.0714 38.0007 51.6616C37.9539 37.6608 20.131 40.1509 20.131 34.8889Z" fill="#2D8A48"/>
</g>
</svg>
