<svg width="32" height="32" viewBox="0 0 32 32" fill="none" xmlns="http://www.w3.org/2000/svg">
<path d="M30.6666 4.00022C29.3898 4.90086 27.9761 5.5897 26.4799 6.04022C25.6769 5.11691 24.6097 4.46248 23.4226 4.16546C22.2356 3.86844 20.9859 3.94315 19.8427 4.3795C18.6995 4.81584 17.7178 5.59276 17.0306 6.60518C16.3433 7.6176 15.9835 8.81667 15.9999 10.0402V11.3736C13.6568 11.4343 11.335 10.9146 9.24126 9.86082C7.14758 8.807 5.34701 7.25174 3.99992 5.33356C3.99992 5.33356 -1.33341 17.3336 10.6666 22.6669C7.92062 24.5308 4.64946 25.4655 1.33325 25.3336C13.3333 32.0002 27.9999 25.3336 27.9999 10.0002C27.9987 9.62883 27.963 9.25835 27.8933 8.89356C29.2541 7.55155 30.2144 5.85717 30.6666 4.00022V4.00022Z" stroke="#666464" stroke-width="2" stroke-linecap="round" stroke-linejoin="round"/>
</svg>
