<svg width="320" height="85" viewBox="0 0 320 85" fill="none" xmlns="http://www.w3.org/2000/svg">
<g opacity="0.5">
<path d="M303.371 9.83365L287.022 44.3028L280.843 31.2234H274.164L284.309 52.6117H289.708L309.999 9.83365H303.371Z" fill="#2D8A48"/>
<path d="M129.619 16.0748H142.91V27.6439H129.619V16.0748ZM25.0688 73.8339H38.9518L54.0215 31.2234H40.7306L32.2649 58.6038H32.0955L23.6298 31.2234H10L25.0688 73.8339ZM73.8305 39.2953C78.4863 39.2953 81.7032 42.7085 82.2113 47.7015H64.5184C65.5346 42.6243 68.3274 39.2953 73.8305 39.2953ZM74.5079 65.6787C68.6666 65.6787 65.1114 61.9328 64.4335 56.1916H95.672C95.7564 47.0353 93.3009 39.7117 88.137 35.1344C84.4974 31.8054 79.6713 29.9744 73.5762 29.9744C60.54 29.9744 51.4814 39.7117 51.4814 52.4452C51.4814 65.2619 60.1164 75.0824 74.4234 75.0824C79.8416 75.0824 84.1587 73.6675 87.7143 71.2534C91.5242 68.6749 94.2326 64.9288 94.9941 61.1843H82.2962C81.0267 64.0137 78.4018 65.6787 74.5079 65.6787ZM98.804 73.8339H112.01V54.2771C112.01 45.3713 117.429 41.4594 125.725 42.5419H125.979V31.3067C125.301 31.0569 124.54 30.9736 123.27 30.9736C118.106 30.9736 114.635 33.3034 111.672 38.2969H111.417V31.2234H98.804V73.8339ZM129.619 73.8339H142.91V31.2234H129.619V73.8339ZM146.553 73.8339H183.632V63.5982H162.638V63.3474L182.701 41.2096V31.2234H146.553V41.4594H166.87V41.7092L146.553 64.0137V73.8339ZM207.082 65.5948C200.817 65.5948 197.516 60.4357 197.516 52.6117C197.516 44.7052 200.817 39.6284 207.082 39.6284C213.346 39.6284 216.817 44.7052 216.817 52.6117C216.817 60.4357 213.346 65.5948 207.082 65.5948ZM207.167 30.0578C193.368 30.0578 184.14 39.7949 184.14 52.6117C184.14 65.3458 193.368 75.1664 207.167 75.1664C220.966 75.1664 230.193 65.3458 230.193 52.6117C230.193 39.7949 220.966 30.0578 207.167 30.0578ZM233.072 73.8339H246.278V50.1154C246.278 44.7052 249.495 40.8765 254.235 40.8765C258.807 40.8765 261.177 44.0399 261.177 48.5341V73.8339H274.384V46.0378C274.384 36.6324 268.628 29.9744 259.315 29.9744C253.389 29.9744 249.241 32.4716 246.109 37.0488H245.855V31.2234H233.072V73.8339Z" fill="#2D8A48"/>
</g>
</svg>
