<svg width="301" height="75" viewBox="0 0 301 75" fill="none" xmlns="http://www.w3.org/2000/svg">
<g opacity="0.5" clip-path="url(#clip0_132_18875)">
<path d="M0.998535 28.0833C0.998535 36.5 5.50605 44.1667 12.5177 49.3333C13.102 49.75 13.4359 50.4167 13.4359 51.1667C13.4359 51.4167 13.3525 51.6667 13.3525 51.9167C12.7682 54 11.9334 57.4167 11.85 57.5833C11.7665 57.8333 11.683 58.1667 11.683 58.4167C11.683 59 12.1838 59.5 12.7682 59.5C13.0186 59.5 13.1855 59.4167 13.4359 59.25L20.698 55C21.2823 54.6667 21.8666 54.5 22.451 54.5C22.7848 54.5 23.1187 54.5833 23.4526 54.6667C26.875 55.6667 30.5478 56.1667 34.304 56.1667C52.668 56.1667 67.5261 43.5833 67.5261 28.0833C67.5261 12.5833 52.5845 0 34.2206 0C15.8566 0 0.998535 12.5833 0.998535 28.0833Z" fill="white"/>
<path d="M0.998535 28.0833C0.998535 36.5 5.50605 44.1667 12.5177 49.3333C13.102 49.75 13.4359 50.4167 13.4359 51.1667C13.4359 51.4167 13.3525 51.6667 13.3525 51.9167C12.7682 54 11.9334 57.4167 11.85 57.5833C11.7665 57.8333 11.683 58.1667 11.683 58.4167C11.683 59 12.1838 59.5 12.7682 59.5C13.0186 59.5 13.1855 59.4167 13.4359 59.25L20.698 55C21.2823 54.6667 21.8666 54.5 22.451 54.5C22.7848 54.5 23.1187 54.5833 23.4526 54.6667C26.875 55.6667 30.5478 56.1667 34.304 56.1667C52.668 56.1667 67.5261 43.5833 67.5261 28.0833C67.5261 12.5833 52.5845 0 34.2206 0C15.8566 0 0.998535 12.5833 0.998535 28.0833Z" fill="url(#paint0_linear_132_18875)"/>
<path d="M37.3926 48.9167C37.3926 61.8333 49.83 72.25 65.1054 72.25C68.2774 72.25 71.2824 71.8333 74.1205 71C74.3709 70.9167 74.6213 70.9167 74.9552 70.9167C75.456 70.9167 75.9569 71.0833 76.4577 71.3333L82.5512 74.9167C82.7181 75 82.8851 75.0833 83.052 75.0833C83.5528 75.0833 83.9702 74.6667 83.9702 74.1667C83.9702 73.9167 83.8867 73.6667 83.8033 73.5C83.8033 73.3333 83.052 70.5833 82.5512 68.75C82.4677 68.5833 82.4677 68.3333 82.4677 68.1667C82.4677 67.5 82.8016 67 83.219 66.6667C89.062 62.4167 92.8183 56.0833 92.8183 49C92.8183 36.0833 80.3809 25.6667 65.1054 25.6667C49.83 25.5 37.3926 36 37.3926 48.9167Z" fill="url(#paint1_linear_132_18875)"/>
<path d="M70.9485 41.75C70.9485 43.8333 72.6179 45.5 74.6213 45.5C76.7081 45.5 78.2941 43.8333 78.2941 41.75C78.2941 39.6667 76.6246 38 74.6213 38C72.6179 38 70.9485 39.6667 70.9485 41.75Z" fill="#919191"/>
<path d="M52.4175 41.75C52.4175 43.8333 54.0869 45.5 56.0903 45.5C58.1771 45.5 59.7631 43.8333 59.7631 41.75C59.7631 39.6667 58.0936 38 56.0903 38C54.0869 38 52.4175 39.6667 52.4175 41.75Z" fill="#919191"/>
<path d="M27.5427 19C27.5427 21.5 25.5393 23.5 23.1186 23.5C20.6979 23.5 18.6946 21.5 18.6946 19C18.6946 16.5 20.6979 14.5 23.1186 14.5C25.6228 14.5 27.5427 16.5833 27.5427 19Z" fill="#2D8A48"/>
<path d="M49.8298 19C49.8298 21.5 47.8264 23.5 45.4057 23.5C42.985 23.5 40.9817 21.5 40.9817 19C40.9817 16.5 42.985 14.5 45.4057 14.5C47.8264 14.5 49.8298 16.5833 49.8298 19Z" fill="#2D8A48"/>
<path d="M123.953 57.6667L113.686 17.25H119.195L124.037 37.6667C125.205 42.75 126.291 47.75 127.042 51.6667H127.125C127.793 47.6667 129.045 42.8333 130.464 37.6667L135.89 17.25H141.316L146.241 37.75C147.409 42.5833 148.494 47.3333 149.079 51.5833H149.162C149.997 47.1667 151.165 42.6667 152.417 37.5833L157.76 17.1667H163.102L151.666 57.5833H146.241L141.065 36.6667C139.813 31.4167 138.978 27.5 138.394 23.4167H138.311C137.643 27.5 136.725 31.4167 135.222 36.5833L129.463 57.6667H123.953Z" fill="#2D8A48"/>
<path d="M167.693 44.0833C167.776 51.1667 172.284 54.0833 177.626 54.0833C181.382 54.0833 183.72 53.4167 185.639 52.5833L186.641 56.3333C184.805 57.1667 181.549 58.1667 176.875 58.1667C168.027 58.1667 162.601 52.25 162.601 43.5C162.601 34.75 167.86 27.8333 176.291 27.8333C185.806 27.8333 188.227 36.1667 188.227 41.5C188.227 42.5833 188.144 43.3333 188.06 43.9167H167.693V44.0833ZM183.135 40.3333C183.219 37 181.716 31.75 175.873 31.75C170.447 31.75 168.194 36.6667 167.776 40.3333H183.135Z" fill="#2D8A48"/>
<path d="M223.619 56.3333C221.783 57.3333 217.776 58.3333 212.852 58.3333C201.416 58.3333 192.902 51.1667 192.902 37.9167C192.902 25.25 201.499 16.75 214.02 16.75C219.028 16.75 222.117 17.75 223.453 18.4167L222.284 22.75C220.364 21.75 217.526 21.0833 214.187 21.0833C204.671 21.0833 198.411 27.1667 198.411 37.6667C198.411 47.5833 204.087 53.8333 213.937 53.8333C217.192 53.8333 220.448 53.1667 222.534 52.1667L223.619 56.3333Z" fill="#2D8A48"/>
<path d="M228.628 17.3333H233.887V33.1667H233.97C234.805 31.6667 236.14 30.25 237.726 29.4167C239.312 28.4167 241.149 27.9167 243.152 27.9167C247.075 27.9167 253.336 30.3333 253.336 40.3333V57.5833H248.077V40.9167C248.077 36.25 246.324 32.3333 241.316 32.3333C237.893 32.3333 235.222 34.75 234.221 37.5833C233.887 38.3333 233.887 39.0833 233.887 40.0833V57.5833H228.628V17.3333Z" fill="#2D8A48"/>
<path d="M280.548 50.75C280.548 53.25 280.631 55.75 280.965 57.6667H276.207L275.706 54H275.539C273.953 56.25 270.781 58.3333 266.691 58.3333C260.765 58.3333 257.843 54.1667 257.843 50C257.843 43 264.104 39.1667 275.289 39.25V38.6667C275.289 36.25 274.621 31.9167 268.695 31.9167C265.94 31.9167 263.102 32.6667 261.099 34.0833L260.097 30.4167C262.351 29 265.857 28 269.529 28C278.461 28 280.631 34.0833 280.631 39.8333V50.75H280.548ZM275.372 42.8333C269.613 42.75 263.102 43.75 263.102 49.3333C263.102 52.8333 265.356 54.3333 268.027 54.3333C271.867 54.3333 274.371 51.9167 275.206 49.5C275.372 49 275.456 48.3333 275.456 47.8333V42.8333H275.372Z" fill="#2D8A48"/>
<path d="M293.236 23.3333V28.6667H300.832V32.6667H293.236V48.25C293.236 51.8333 294.237 53.9167 297.159 53.9167C298.578 53.9167 299.413 53.8333 299.913 53.6667L300.998 57.5C299.997 58 297.827 58.3333 295.823 58.3333C293.403 58.3333 291.399 57.5 290.147 56.0833C288.728 54.5 288.144 51.9167 288.144 48.5V32.6667H283.636V28.6667H288.144V23.3333H293.236Z" fill="#2D8A48"/>
</g>
<defs>
<linearGradient id="paint0_linear_132_18875" x1="34.2532" y1="59.4142" x2="34.2532" y2="0" gradientUnits="userSpaceOnUse">
<stop offset="0.0601963" stop-color="#05CD66"/>
<stop offset="0.2202" stop-color="#0ED169"/>
<stop offset="0.4805" stop-color="#26DB6F"/>
<stop offset="0.8069" stop-color="#4DEB7A"/>
<stop offset="0.9517" stop-color="#61F380"/>
</linearGradient>
<linearGradient id="paint1_linear_132_18875" x1="65.1247" y1="75" x2="65.1247" y2="25.5248" gradientUnits="userSpaceOnUse">
<stop offset="0.0809942" stop-color="#D9D9D9"/>
<stop offset="1" stop-color="#F0F0F0"/>
</linearGradient>
<clipPath id="clip0_132_18875">
<rect width="300" height="75" fill="white" transform="translate(0.998535)"/>
</clipPath>
</defs>
</svg>
