<svg width="74" height="73" viewBox="0 0 74 73" fill="none" xmlns="http://www.w3.org/2000/svg">
<path d="M2.99707 44.545C2.99707 41.1079 3.66931 37.7043 4.97548 34.5289C6.28167 31.3533 8.1961 28.468 10.6096 26.0375C13.0231 23.6071 15.8882 21.6791 19.0415 20.3638C22.1949 19.0485 25.5746 18.3715 28.9878 18.3715V44.545H2.99707Z" fill="#174524"/>
<path d="M2.99707 44.545C2.99707 47.9823 3.66931 51.3858 4.97548 54.5614C6.28167 57.7369 8.1961 60.6222 10.6096 63.0527C13.0231 65.4831 15.8882 67.4111 19.0415 68.7264C22.1949 70.0418 25.5746 70.7187 28.9878 70.7187V44.545H2.99707Z" fill="#2D8A48"/>
<path d="M54.9781 44.545C54.9781 47.9823 54.3064 51.3858 53.0003 54.5614C51.6942 57.7369 49.7798 60.6222 47.3659 63.0527C44.9525 65.4831 42.0873 67.4111 38.9338 68.7264C35.7807 70.0418 32.4009 70.7187 28.9878 70.7187V44.545H54.9781Z" fill="#44CF6C"/>
<path d="M71.0033 21.9335C71.0033 32.787 62.2659 41.5857 51.4883 41.5857H31.9736V21.9335C31.9736 11.0799 40.7108 2.28125 51.4883 2.28125C62.2659 2.28125 71.0033 11.0799 71.0033 21.9335Z" fill="#D19C1D"/>
</svg>
